<mxfile host="Electron" modified="2023-04-29T20:39:33.324Z" agent="Mozilla/5.0 (X11; Linux x86_64) AppleWebKit/537.36 (KHTML, like Gecko) draw.io/21.2.1 Chrome/112.0.5615.87 Electron/24.1.2 Safari/537.36" etag="u9DKLMIDbuARiigN8Yo7" version="21.2.1" type="device">
  <diagram name="Page-1" id="nbLR3kgPUqgIERppXBbR">
    <mxGraphModel dx="1434" dy="875" grid="1" gridSize="10" guides="1" tooltips="1" connect="1" arrows="1" fold="1" page="1" pageScale="1" pageWidth="850" pageHeight="1100" math="0" shadow="0">
      <root>
        <mxCell id="0" />
        <mxCell id="1" parent="0" />
        <mxCell id="8wQd0vTRtWPYDtNzIvMa-43" value="" style="endArrow=none;html=1;rounded=0;entryX=0;entryY=0;entryDx=0;entryDy=0;exitX=0;exitY=1;exitDx=0;exitDy=0;dashed=1;" edge="1" parent="1" source="8wQd0vTRtWPYDtNzIvMa-35" target="8wQd0vTRtWPYDtNzIvMa-11">
          <mxGeometry width="50" height="50" relative="1" as="geometry">
            <mxPoint x="560" y="220" as="sourcePoint" />
            <mxPoint x="610" y="170" as="targetPoint" />
          </mxGeometry>
        </mxCell>
        <mxCell id="8wQd0vTRtWPYDtNzIvMa-29" value="&lt;b&gt;JSON txpk object&amp;nbsp;&lt;/b&gt;" style="rounded=0;whiteSpace=wrap;html=1;fillColor=#e1d5e7;strokeColor=#9673a6;" vertex="1" parent="1">
          <mxGeometry x="480" y="360" width="160" height="40" as="geometry" />
        </mxCell>
        <mxCell id="8wQd0vTRtWPYDtNzIvMa-1" value="" style="rounded=0;whiteSpace=wrap;html=1;fillColor=#d5e8d4;strokeColor=#82b366;" vertex="1" parent="1">
          <mxGeometry x="400" y="120" width="80" height="40" as="geometry" />
        </mxCell>
        <mxCell id="8wQd0vTRtWPYDtNzIvMa-2" value="" style="rounded=0;whiteSpace=wrap;html=1;fillColor=#f8cecc;strokeColor=#b85450;" vertex="1" parent="1">
          <mxGeometry x="480" y="120" width="80" height="40" as="geometry" />
        </mxCell>
        <mxCell id="8wQd0vTRtWPYDtNzIvMa-3" value="" style="rounded=0;whiteSpace=wrap;html=1;fillColor=#dae8fc;strokeColor=#6c8ebf;" vertex="1" parent="1">
          <mxGeometry x="320" y="120" width="80" height="40" as="geometry" />
        </mxCell>
        <mxCell id="8wQd0vTRtWPYDtNzIvMa-4" value="" style="rounded=0;whiteSpace=wrap;html=1;fillColor=#ffe6cc;strokeColor=#d79b00;" vertex="1" parent="1">
          <mxGeometry x="240" y="120" width="80" height="40" as="geometry" />
        </mxCell>
        <mxCell id="8wQd0vTRtWPYDtNzIvMa-5" value="&lt;b&gt;0&lt;/b&gt;" style="text;html=1;align=center;verticalAlign=middle;resizable=0;points=[];autosize=1;strokeColor=none;fillColor=none;" vertex="1" parent="1">
          <mxGeometry x="265" y="125" width="30" height="30" as="geometry" />
        </mxCell>
        <mxCell id="8wQd0vTRtWPYDtNzIvMa-6" value="&lt;b&gt;1-2&lt;/b&gt;" style="text;html=1;align=center;verticalAlign=middle;resizable=0;points=[];autosize=1;strokeColor=none;fillColor=none;" vertex="1" parent="1">
          <mxGeometry x="340" y="125" width="40" height="30" as="geometry" />
        </mxCell>
        <mxCell id="8wQd0vTRtWPYDtNzIvMa-7" value="&lt;b&gt;3&lt;/b&gt;" style="text;html=1;align=center;verticalAlign=middle;resizable=0;points=[];autosize=1;strokeColor=none;fillColor=none;" vertex="1" parent="1">
          <mxGeometry x="425" y="125" width="30" height="30" as="geometry" />
        </mxCell>
        <mxCell id="8wQd0vTRtWPYDtNzIvMa-8" value="&lt;b&gt;4-11&lt;/b&gt;" style="text;html=1;align=center;verticalAlign=middle;resizable=0;points=[];autosize=1;strokeColor=none;fillColor=none;" vertex="1" parent="1">
          <mxGeometry x="495" y="125" width="50" height="30" as="geometry" />
        </mxCell>
        <mxCell id="8wQd0vTRtWPYDtNzIvMa-9" value="&lt;b&gt;Byte position&amp;nbsp;&lt;/b&gt;" style="text;html=1;align=center;verticalAlign=middle;resizable=0;points=[];autosize=1;strokeColor=none;fillColor=none;" vertex="1" parent="1">
          <mxGeometry x="110" y="130" width="100" height="30" as="geometry" />
        </mxCell>
        <mxCell id="8wQd0vTRtWPYDtNzIvMa-11" value="&lt;b&gt;12-end&lt;/b&gt;" style="rounded=0;whiteSpace=wrap;html=1;fillColor=#e1d5e7;strokeColor=#9673a6;" vertex="1" parent="1">
          <mxGeometry x="560" y="120" width="80" height="40" as="geometry" />
        </mxCell>
        <mxCell id="8wQd0vTRtWPYDtNzIvMa-12" value="&lt;b&gt;Protocol version&lt;br&gt;0x02&lt;/b&gt;" style="rounded=0;whiteSpace=wrap;html=1;fillColor=#ffe6cc;strokeColor=#d79b00;" vertex="1" parent="1">
          <mxGeometry x="240" y="200" width="80" height="40" as="geometry" />
        </mxCell>
        <mxCell id="8wQd0vTRtWPYDtNzIvMa-13" value="&lt;b&gt;PULL DATA&amp;nbsp;&lt;br&gt;0x02&lt;/b&gt;" style="rounded=0;whiteSpace=wrap;html=1;fillColor=#d5e8d4;strokeColor=#82b366;" vertex="1" parent="1">
          <mxGeometry x="400" y="200" width="80" height="40" as="geometry" />
        </mxCell>
        <mxCell id="8wQd0vTRtWPYDtNzIvMa-14" value="&lt;b&gt;Random token&lt;/b&gt;" style="rounded=0;whiteSpace=wrap;html=1;fillColor=#dae8fc;strokeColor=#6c8ebf;" vertex="1" parent="1">
          <mxGeometry x="320" y="200" width="80" height="40" as="geometry" />
        </mxCell>
        <mxCell id="8wQd0vTRtWPYDtNzIvMa-15" value="&lt;b&gt;Gateway EUI&lt;/b&gt;" style="rounded=0;whiteSpace=wrap;html=1;fillColor=#f8cecc;strokeColor=#b85450;" vertex="1" parent="1">
          <mxGeometry x="480" y="200" width="80" height="40" as="geometry" />
        </mxCell>
        <mxCell id="8wQd0vTRtWPYDtNzIvMa-16" value="&lt;b&gt;PULL&lt;/b&gt;_&lt;b style=&quot;background-color: initial;&quot;&gt;DATA&lt;/b&gt;" style="text;html=1;align=center;verticalAlign=middle;resizable=0;points=[];autosize=1;strokeColor=none;fillColor=none;" vertex="1" parent="1">
          <mxGeometry x="110" y="200" width="90" height="30" as="geometry" />
        </mxCell>
        <mxCell id="8wQd0vTRtWPYDtNzIvMa-17" value="&lt;b&gt;PULL&lt;/b&gt;_&lt;b style=&quot;background-color: initial;&quot;&gt;ACK&amp;nbsp;&lt;/b&gt;" style="text;html=1;align=center;verticalAlign=middle;resizable=0;points=[];autosize=1;strokeColor=none;fillColor=none;" vertex="1" parent="1">
          <mxGeometry x="115" y="285" width="90" height="30" as="geometry" />
        </mxCell>
        <mxCell id="8wQd0vTRtWPYDtNzIvMa-18" value="&lt;b&gt;Protocol version&lt;br&gt;0x02&lt;/b&gt;" style="rounded=0;whiteSpace=wrap;html=1;fillColor=#ffe6cc;strokeColor=#d79b00;" vertex="1" parent="1">
          <mxGeometry x="240" y="280" width="80" height="40" as="geometry" />
        </mxCell>
        <mxCell id="8wQd0vTRtWPYDtNzIvMa-20" value="&lt;b&gt;PULL&lt;/b&gt;_&lt;b style=&quot;background-color: initial;&quot;&gt;DATA&lt;/b&gt;&lt;br&gt;&lt;b&gt;Random token&lt;/b&gt;" style="rounded=0;whiteSpace=wrap;html=1;fillColor=#dae8fc;strokeColor=#6c8ebf;" vertex="1" parent="1">
          <mxGeometry x="320" y="280" width="80" height="40" as="geometry" />
        </mxCell>
        <mxCell id="8wQd0vTRtWPYDtNzIvMa-21" value="&lt;b&gt;PULL ACK&lt;br&gt;0x04&lt;/b&gt;" style="rounded=0;whiteSpace=wrap;html=1;fillColor=#d5e8d4;strokeColor=#82b366;" vertex="1" parent="1">
          <mxGeometry x="400" y="280" width="80" height="40" as="geometry" />
        </mxCell>
        <mxCell id="8wQd0vTRtWPYDtNzIvMa-22" value="&lt;b&gt;Protocol version&lt;br&gt;0x02&lt;/b&gt;" style="rounded=0;whiteSpace=wrap;html=1;fillColor=#ffe6cc;strokeColor=#d79b00;" vertex="1" parent="1">
          <mxGeometry x="240" y="360" width="80" height="40" as="geometry" />
        </mxCell>
        <mxCell id="8wQd0vTRtWPYDtNzIvMa-23" value="&lt;b&gt;Protocol version&lt;br&gt;0x02&lt;/b&gt;" style="rounded=0;whiteSpace=wrap;html=1;fillColor=#ffe6cc;strokeColor=#d79b00;" vertex="1" parent="1">
          <mxGeometry x="240" y="440" width="80" height="40" as="geometry" />
        </mxCell>
        <mxCell id="8wQd0vTRtWPYDtNzIvMa-24" value="&lt;b&gt;Random token&lt;/b&gt;" style="rounded=0;whiteSpace=wrap;html=1;fillColor=#dae8fc;strokeColor=#6c8ebf;" vertex="1" parent="1">
          <mxGeometry x="320" y="360" width="80" height="40" as="geometry" />
        </mxCell>
        <mxCell id="8wQd0vTRtWPYDtNzIvMa-25" value="&lt;b&gt;PULL RESP&lt;br&gt;0x03&lt;/b&gt;" style="rounded=0;whiteSpace=wrap;html=1;fillColor=#d5e8d4;strokeColor=#82b366;" vertex="1" parent="1">
          <mxGeometry x="400" y="360" width="80" height="40" as="geometry" />
        </mxCell>
        <mxCell id="8wQd0vTRtWPYDtNzIvMa-26" value="&lt;b&gt;PULL&lt;/b&gt;_&lt;b style=&quot;background-color: initial;&quot;&gt;&amp;nbsp;RESP&lt;/b&gt;" style="text;html=1;align=center;verticalAlign=middle;resizable=0;points=[];autosize=1;strokeColor=none;fillColor=none;" vertex="1" parent="1">
          <mxGeometry x="110" y="365" width="100" height="30" as="geometry" />
        </mxCell>
        <mxCell id="8wQd0vTRtWPYDtNzIvMa-28" value="&lt;b&gt;TX&lt;/b&gt;_&lt;b style=&quot;background-color: initial;&quot;&gt;ACK&lt;/b&gt;" style="text;html=1;align=center;verticalAlign=middle;resizable=0;points=[];autosize=1;strokeColor=none;fillColor=none;" vertex="1" parent="1">
          <mxGeometry x="125" y="440" width="70" height="30" as="geometry" />
        </mxCell>
        <mxCell id="8wQd0vTRtWPYDtNzIvMa-30" value="&lt;b&gt;PULL&lt;/b&gt;_&lt;b style=&quot;background-color: initial;&quot;&gt;RESP&lt;/b&gt;&lt;br&gt;&lt;b&gt;Random token&lt;/b&gt;" style="rounded=0;whiteSpace=wrap;html=1;fillColor=#dae8fc;strokeColor=#6c8ebf;" vertex="1" parent="1">
          <mxGeometry x="320" y="440" width="80" height="40" as="geometry" />
        </mxCell>
        <mxCell id="8wQd0vTRtWPYDtNzIvMa-33" value="&lt;b&gt;TX ACK&lt;br&gt;0x05&lt;/b&gt;" style="rounded=0;whiteSpace=wrap;html=1;fillColor=#d5e8d4;strokeColor=#82b366;" vertex="1" parent="1">
          <mxGeometry x="400" y="440" width="80" height="40" as="geometry" />
        </mxCell>
        <mxCell id="8wQd0vTRtWPYDtNzIvMa-34" value="&lt;b&gt;Gateway EUI&lt;/b&gt;" style="rounded=0;whiteSpace=wrap;html=1;fillColor=#f8cecc;strokeColor=#b85450;" vertex="1" parent="1">
          <mxGeometry x="480" y="440" width="80" height="40" as="geometry" />
        </mxCell>
        <mxCell id="8wQd0vTRtWPYDtNzIvMa-35" value="&lt;b&gt;&amp;nbsp;JSON txpk_ack&lt;br&gt;&amp;nbsp;object&amp;nbsp;&lt;/b&gt;" style="rounded=0;whiteSpace=wrap;html=1;fillColor=#e1d5e7;strokeColor=#9673a6;" vertex="1" parent="1">
          <mxGeometry x="560" y="440" width="80" height="40" as="geometry" />
        </mxCell>
        <mxCell id="8wQd0vTRtWPYDtNzIvMa-36" value="" style="endArrow=none;html=1;rounded=0;entryX=1;entryY=0;entryDx=0;entryDy=0;exitX=1;exitY=1;exitDx=0;exitDy=0;dashed=1;" edge="1" parent="1" source="8wQd0vTRtWPYDtNzIvMa-35" target="8wQd0vTRtWPYDtNzIvMa-11">
          <mxGeometry width="50" height="50" relative="1" as="geometry">
            <mxPoint x="560" y="220" as="sourcePoint" />
            <mxPoint x="610" y="170" as="targetPoint" />
          </mxGeometry>
        </mxCell>
        <mxCell id="8wQd0vTRtWPYDtNzIvMa-39" value="" style="endArrow=none;html=1;rounded=0;entryX=0;entryY=0;entryDx=0;entryDy=0;exitX=0;exitY=1;exitDx=0;exitDy=0;dashed=1;" edge="1" parent="1" source="8wQd0vTRtWPYDtNzIvMa-23" target="8wQd0vTRtWPYDtNzIvMa-4">
          <mxGeometry width="50" height="50" relative="1" as="geometry">
            <mxPoint x="560" y="220" as="sourcePoint" />
            <mxPoint x="610" y="170" as="targetPoint" />
          </mxGeometry>
        </mxCell>
        <mxCell id="8wQd0vTRtWPYDtNzIvMa-40" value="" style="endArrow=none;html=1;rounded=0;entryX=1;entryY=0;entryDx=0;entryDy=0;exitX=1;exitY=1;exitDx=0;exitDy=0;dashed=1;" edge="1" parent="1" source="8wQd0vTRtWPYDtNzIvMa-23" target="8wQd0vTRtWPYDtNzIvMa-4">
          <mxGeometry width="50" height="50" relative="1" as="geometry">
            <mxPoint x="560" y="220" as="sourcePoint" />
            <mxPoint x="610" y="170" as="targetPoint" />
          </mxGeometry>
        </mxCell>
        <mxCell id="8wQd0vTRtWPYDtNzIvMa-41" value="" style="endArrow=none;html=1;rounded=0;entryX=1;entryY=0;entryDx=0;entryDy=0;exitX=0;exitY=1;exitDx=0;exitDy=0;dashed=1;" edge="1" parent="1" source="8wQd0vTRtWPYDtNzIvMa-33" target="8wQd0vTRtWPYDtNzIvMa-3">
          <mxGeometry width="50" height="50" relative="1" as="geometry">
            <mxPoint x="560" y="220" as="sourcePoint" />
            <mxPoint x="610" y="170" as="targetPoint" />
          </mxGeometry>
        </mxCell>
        <mxCell id="8wQd0vTRtWPYDtNzIvMa-42" value="" style="endArrow=none;html=1;rounded=0;entryX=1;entryY=0;entryDx=0;entryDy=0;exitX=1;exitY=1;exitDx=0;exitDy=0;dashed=1;" edge="1" parent="1" source="8wQd0vTRtWPYDtNzIvMa-33" target="8wQd0vTRtWPYDtNzIvMa-1">
          <mxGeometry width="50" height="50" relative="1" as="geometry">
            <mxPoint x="560" y="220" as="sourcePoint" />
            <mxPoint x="610" y="170" as="targetPoint" />
          </mxGeometry>
        </mxCell>
        <mxCell id="8wQd0vTRtWPYDtNzIvMa-46" value="" style="shape=image;verticalLabelPosition=bottom;labelBackgroundColor=default;verticalAlign=top;aspect=fixed;imageAspect=0;image=data:image/png,iVBORw0KGgoAAAANSUhEUgAAAgEAAADUCAIAAACK6GeDAAAAA3NCSVQICAjb4U/gAAAgAElEQVR4Xu2dd0BT1/fAkzCjEjWaiqJIi0gp5YuUYq38tFb9arHq11GVuurEVq2rWvfEPeseuOrAgXuPggPBAYJMBQWRvQwkhISM9/J7CRnvvbyEBIIFOekflfvuPffcz73vnnvPHY9Ggx8QAAJAAAgAASAABIAAEAACQAAIAAEgAASAABAAAkAACAABIAAEgAAQAAJAAAgAASAABIAAEAACQAAIAAEgAASAABAAAkAACAABIAAEgAAQAAJAAAgAASAABIAAEAACQAAIAAEgAASAABAAAkAACAABIAAEgAAQAAJAAAgAASAABIAAEAACQAAIAAEgAASAABAAAkAACAABIAAEgAAQAAJAAAgAASAABIAAEAACQAAIAAEgAASAABAAAkAACAABIAAEgAAQAAJAAAgAASAABIAAEAACQAAIAAEgAASAABAAAkAACAABAgHO0G0PM0pEUplEkB93YpoHE/gAASAABIBAnSFg33/ZmYcvXr1JT09/q/ilp6e9DN89ysFMCnICLuXJ5KofWv5oubOZBIMYIAAEgAAQqDEBz7VPhKi6j1b/X/r6yEBWjUUrBbiseSLWypcm7+1lJsHmUa+OSrHUrxfbZ9gv/b9ua2fFoNNJseRyFJGKhfz3+RnJz+7ffJ5DJcWp5wT/Xp9zmFh61WO5HJGU5Ty/9ndIFFedwrHHuJ97f/FJI0tNLphwqSAv7taJ4Mh8Go3pNmDicF+nptYWFFrIRAXxt04cD6fMH6eTWYRQlbFaYc59Jo/o0bGlraVOiRTiMEgycYWgBEP79H5oVKaIOg+XvlOGf9ehhR4hVGkwrhJ+5tPzBy4mUMpkew3/dfLw3p2/7OBoz2Y1smYgknKshrPeJD1/dPNsnMvS7dO+/YTOfbb7lx/n3+ETcqhpU6FS12xh9l38R/l1am1H0YIq81A0uPLCl6Fnjt7P0M21BlgIwlz7zQwY1e//vFydWrdkNcboistLirLTk6LvXzq699BDyibMdOs/fpjvZ81sFI0faxji0rSHp/befI0T7NBtzOi+Hp800r5lWERZRfGr0OBDoRTF0S3ghwthOXzS3Ircl9DoDAsrA92QCeoxWUwb/DtFtzCPXBNUqHlUpu+fx/bO6tuxhbWkJO3BnpmjVv1DfNlqnoWxEjwW3C2S6dhssg1XGAMJLyvu7tHlwwnON/agvYnliG50LIGs+P4yn0pHHavfzhcC6lhISeQaX6b92FNvcZZdVx6KlESs7mrY7WcWIcZyqyoeZ/TxNyIjuGJFRVFxSUb01V3TetiTpHJGn0gzUggJGVr+dH1nHVysrlODHmWVI3r1QhFE9RAVR29wJ6pTw6ZSFbEaPWd2XvmwRH+5cHQQQfzuAcRhY82waPRmeo7Zeiu1RKqPLlpR+CJk6QAnckHtxwbrNH6EF721r0ZLpu+ayFLq0mHF2dW/ro2C7SeczZSQMcjSjg1lk8tevb9d1zzRvhZYS93oWT05/2Iq9pC/32jcWXJZdsg4zr+ljf3Uq4WUnbNuN1wZgkq58SdndFF3L56bn+tUtjopUnJnTqUH0HXdM709PMIPne/cL+iVVF+OqnCEF/qnQX8iyxxCzFUPxihD7rYRfkrILHzHXQ0hGpmyjJP+xDfOvv/68AK9laVDX5q8vw+hb6lpUzEXWko59jNvvTeyHaPiqPVuWiE1xaKSZN9/bVh2Bbnf06GKImUpIbM1r48isZ5aRrj3l3qrXjOH+aE8faUjFYeSzocPZPuMWrLtyKNsbTcnN6MNYHZdfD2dJ8GsIioT5j5cT2yoH7601cjRfvo1XMeL8MMWGOzcqpGDThKGTkhlgKS0TCjX84wymG7Z3OPn9ceCxjkpH/OKeSJ96eVl3IJKb4SguFRvLvKy0iJRMV+I6BOjUkMu5JdIKFVSBUrNIcRQBqY8kxYU86RVlIgkj86w6zhk1Z412gYt5Qowt6op2eLj0gl17jThr52zfT/RnaLrFW9paUN4VtOmojcjczyQFJUIjCQlF5YWaWbdNcei0J7ZfVnwwbk9HGx0HCDkstEZTToOXXPi6BTtHEvKLaOqZUazrhPmDq2cGUpKBJRuPYV0ubicV07O5l//mxt1cvWiXc8K0VrRRBS55sfPmrZ0+KxDu08atem+gOSyrJU8zS6U6CGusuXUPH8LPSJE70qben7d0b5pE8wXqYojl/CL3/PKsZ+wQkqztLYiu+jpVmzXz5vEH7+aIi5NKWJ+/oUji8lsbKPxe8tl5dzcjBeX/1qx+UGODJNallJg5fpF+6ZYLFsrddnliLAk7138jR0r19x5ki5t49Gxla1cLKyQWzMxl65KF7SCV8zll5Xmp4QeWLvm1luxnnJgwbKcrJoL0S/etCeyvFfcJl+4tbWzxYpsqSmNqOhtWlZBMfZ7z+WVSy0bNSJ6r+k2rdo3ST9+JlaoyE72Pt/ys87u7dgs7XIAxra0uLRMUTs6PyFi1UhdjXJe4sX959UrAqyeK/et6uOAtwDyivz4uxdOnzl74erdyIR3fEtO29Ysa23DVAg4dPGltu+paVMxDaCJsUVvctB2ru2bW6ESkVDZdBHLRliLVImRSwXc96UCAa84K+HOnsA1N98qy2UOLIqB/Naz24Y5M3E2FxXlxt45d+p0yOW7T5LzJE1at+U01rRpulXzz79xQx6EhCtfDtn7XHm7r9wdWzRlat4NhXJ0C1b7drSIE3ffyYRvS5p84e5ox5AiFkwb3BtU/v7t81NbVp5KKDWRV3Wic1x9vvbydHdpb8+Sl+aXGngVK6Vbtek7cdK3rdVdj7wk/lwQvkFVRwd8GrGgtKRMr200RjrTwb2zz1cebs6tWbSyvJJqyuK4deni/Z+O7Vs0QviFPBwWjqvvt1804WUWUwhu0nnUVD+XRqoGKpdkhO3++1GZMUrXThxWX4IrRhK/w1frSma59Jyw+lR0AcmZI0s/Pkzra3BcGYHzW8tyLkyk8m45LLjH105pkaLr08kOcBqNPTI4AzeBlDxdW419X2YRYg7WTO+tMRKtQ4A8HWa6DQ68k0kkK00lbZ8wji2mLdN3R7wmM1lG8EhN/TC7/vWCkAsiSDw0yoVYQk7v5XdztL4iTADJmaSIXvOmYg6sRsjw2kIAT2it6uRmwcLsuvYxwVGDLYQ93jqE0GqZHuMPx+OavmK1LP/a7/gKINayqsmgsrwrU/GSjHmDjIBjQhSHbhPWHL3x5GV2iUi7bIhii+vF7xIeXT6w1N9Hr4+fuvGz3ftNWbH94IkzIWdPHd27aXGAn7uh5Qymp//S3cfPnr9o6Bfy99oxxp8RcOwxef2J21GpeTyxZo0FRSWCgjfRt/9ePbaL3gIRsLn4zdoecj8+o1io4YLKRCXZyZFXMCpe9j0Dw3Ix3yAqzrk+11NnZY5mP/16Ea4v5N+rfV+QwVo3+GJXpmT33UFc1UXFT9dqvarG9VPGtGCzdN9mEWIQmZEPqV8DQmKPNY8J++iQgiu/EUyjIbZs72EzF86b2EfZT5BsAG49gBNwOR/vT0ZK/vnTiaIIzpPPadbypK+CtIuSmrg1byoU2dZGkDE2wBxY2MNPpONXgVFp1qXfXHVLxOy85F4xvg5QYcy27tq+gdIGYLZClLi3n7aPNOYN0s27miFO/ZecjSkwvMaBIuVZkUdm9aAa8uk0/lPzlpyOyhESF7dRpKIw8fq28d5UloDZZf1T6s0kxJUWtCJipaMRxXTwW3jGcJGwAmU+2D3BS7fX1op3HrTyYuJ7A0trKCIsLFTbfKTs/mKNbk49xsxavCIwcPXa4FjcyAEVJp1btxr/CwxcsWjmqG7GFKpSMefBK06HJ2cV8/ilhZmJ947N9yMvMNR08xT34Yl7b3719NTMdzHvdfM2LNrLf2s/kxEVXj+icLllYjmNqfEHysUiAWKc6o6/Hbqy/X9trGgVv34/xXf0scJSgUxOUzp85KigNF8zBbWwtiAsDtCt2a0/Y9EyyJWXFjR/nmuTJcM8W8rzI/8+/pj83Ci16k9TMQMWzo9DuztqXE4Y94r4s5uOpuiCEj3bsf3KWN9xLmp/HN3W/b8jurIehhqETLd1G/bH1D031ifoiqzNEGaXWceOrhrS0U6z4Zs6NzqjUdtvf9l8oZP7HyMnH3lJHakylNFuyOqVVtZkgXSGDce938z9X3fpNGP0zDNpBBFNPFwdbfWtZeJj0hlVxmJ6TjlwcuPIL1hkDQg5YgVq1/23PVc6ths3YmWoZmu7Jg6zy+zjxwIHuzQ2lB+dweRorCLDhtW8BY2WSaPZjz0ZduDnTylWjejML4Yu+EKHHir6ree4rhPP6qpBisoZuvfikQAPO5VSdk17jF7j6dJ8eN8FuA2nhjTWyZoqwKpZI2vCuoVcKimXUsWEMBMIMD2G9dJUnSIdWpH58lmRURLYXbt5tVJ0KXRbx6+7ebFo2efP3kxX7NRFK/LCz4fEaGyA8HUeF786R2/U6beT/5xaNbozefyWdmbuDx7tW7d28hq67qHB3km/ivWmqdQcC8unu6fG4Y0RkUte3T+j5U5gxA+7+CgDZ93pVs5f925PjRGtKC/HzLnix2B3m/TnCHI9USczV6jrxIPH1g51rcoAqLOjWzTvNOGv4N1DdF27OI3oVtY6BkDzmG71yTfT9pxYR9rhI07LLlJxqGHZHIZtO75ppLthA6ApkE3bXguC9kwieUtpNNdJh4+vGWLYAFAoymAophWsr7p5t6MwABQJVEEM5mfffPcfQ1OSyoguk6b97K42AJVBWJ34jJ02HN9uajgPYLqP+rVvB/zCMiooeJdFsdahv0DwhEZr5Nhz+hI3RXfMsG7c3P7TL3y6d/uPPY4rWhJ56RTFMFIDj9Gq319veFuVfzNsNKMROh0TIor7a2iHky7eTtb5iUk5uMrhR12PSB/bsaPWitNt7H38lx4bOmt9akJcQkJCfOzzR2G3w19Xs9vH1W09aio1x9LMy6UtfniFFqTGvNH3VvCj4tJ4qEsLdQK6lePn33BoCRQWX14SHhLvNaZPK2whmW716cBZs7teWRSpT7CZ3yznKetXDO+gnZli4uXSkpQHly9evxeVki9u1M792579B/f3/ZSlWeemMVieE9auuX9/YkhVg1a5lJ+XkVWCsto4OTSz0Q7K6RbsztPXr7z/ZPZtTSvkh61fsIo1o58bdriUTthIQ2e2dnVpZdQcAdOfPSww8Jcvtb2kHC3Pfnbz0o17TxPSCoTWLZ3cfbr3GfBjtw7N1HM6uq3TkMUrR18beQI7wKr6uU7ftPInZwIYVJQXe/vCpVvhcW/fSxq1cnb/2reXn9//daQ4I0eTFvOwARoNN2ussuKwHSC891VWO+tzl7YU8xKLlu06YlaZonlR5Ety8kqTj4zs0V3x69HLb8jYGSv3XFR48QgeOKQsYhXuYIYhn7U2Q2O8mWZx5ZtFCAUok4NILlGd7eIkr6a04N6ybmSzr8dTTEgqTTlYxUEh14DTVRw3Q6Vlea8eXw1aPrqL/lFnzZuKyQyrl8CY9QBMcs2wMLvvSsAt+cvlkthtqmORVFqzBh5JxR+DQUURK9QOX503aHLP1RGlqpcOlWVfmKyIacwbRJWzCWGsnttfEC96QASvzvzeheyu5/RafCODeIARKX2w1EObFUXjR8pehfzZW+WoZncJOPj8PfGAKlJ4Y6ZRm0A440Nwhw9Q8eNAA65z90X3SrT9Fyoritg4kOwtx9bTOv9+7jW+n0O4//ypnQqw+u1NJCyOoAg3evdI3bUfpnfAsUTcDgBJzGavSiqu43bff5ldVFJayuMJtAvSihO4YgGP8Cst5RZlJYf+NdIIGkyfzc8plm0Uhw4MQCG2CdKLXUVPhT1GpdkXpzjhhOi0YNgXpKRD8RrooYsdHkq/tXoARZ2ZxwYodJm8PzzTwCFhlWYoIsqLDp7fh3JiX/OmQmx6tfaXkTagZlhYAw8TO3Xx49X414JUOl2TEb1R3WdSvEGsAfsS1b0xKnyxA/OT1L4NYPXem0RY7UT4UZt6kg1AZcE4g4OSCVYALY8M1B580Gn8SPG9JaTD686TQ94RsysNW2hEt0czxQa4LntYhtuDw723WN+SL3vI4RTcBjqk8Oo09WvAHnTkNeEIOFJ4dz7Fhp/K977r4tAClXWj3v9o1n1BzC4rw3FGTvkio7KCm7O1u3YwtWroCyI0ZlSUdn7Vov0Ztfb+NjTB8oq3d3evXrnhcKRx87bq8RE9D5rS7fzBUTOmjhn4/Tfujk1xhwHwEukMW3tv/zWnXVpPHDDronYmXJ1ca62pMN2GzZszzKtZ6ePDKzfepLyEx0h9a4RFhuCXWWh0bGnSSn++VlYWpPVI7AYW/dH5V9duvea37ydHbM2HzvTwnzNpb4D+2GZ6wvH1+BTvrUBLIk7uDKN2ERZd3BES47+kaxONd8u2QyfswpMk6kaDvLu5a88zomcj7cSm05P7zfNRb5SnMZq4de7JoaWZ8U3gdPPqoD28gQrfZdP7zlzQlxIYg59djHZso/LO0pu1cWpFoymL097Xw1Hr+qLRkJywo0Fxevw02CG2iVOs18/yc7EtjQ1ec4gaCKUG1QkUPVk/fZ5D0JrRX3+iXG/AtpPlPTk8f9a2l3hpZrIBclSYHXF0+e9zDW8BqE45TE3D6r44+OAfvT9tIsl/fmzeiOmnsYV3k39mEWJ8rthtYCKRFLWwaWSLu/uLRrdp+4VLI55RzR4tiT6573amcknB4b8BYztXupexHdtGqYGd31wx/uQKGsu115BBft2/8fL44vOOn9krLgwkpMeWlLynrA188GDyxar8u3ryrdWm4hiwZc9yv5YMmvzHTlZp34w/X00l1bpXEws/j1cux5ZuNezoTZo7smj6VlUsWzVrjMeMVgh4Aj34lMGZp9bs/vn7db2xgtIYLb//9c9uxwxFN8MzlrNDC8JZciQz+YH+N+td1KtctGtHzZIIveknDnaqTpOsDcpNfhKhU0+iV2EvMuf4fK7poBjsdh0+MdaLTc6D8m+mA6eZRkPMyHQaHdiJMiJFIMPCGvPNYj09u2ObFngTgI3bEsJ1SoOTkHFpuf+l5RQiayVIFHdwUufLuwcO7u1pby3Mib1z8UYCWTstg2qooLjgswg7EnL14MqxPTp1n3ZE1/wRz+kTl2+0ORLDjTzbT60wy3fMmL4dmttYWtm17Txmsj+FE4U6IT7ULEKqzkYTA313dmx7O7sW7sO2RmInRDThdCuHHxeu+50wc9MjVi7KerBtifIX+PfT3MpNE2hFUVa6YqzG6TZx9e6Dh/ZtnOHnRBDA9p0QuDvowJZZqnB+SujRDXMnDOnl87mDvbvfr2uP3XtdStyBQbd16Td6kP6lAUoFjWgqlOlMC2T7eLs2VzZpumV77+/cyEsomIfHhrgbVo/8mmLJe5tXim/GjFZOXzbSkxeN1sKlraI31/zkxblpegaSqjiiuH3rjsaUKScbdGvnQb9/b0e01Xrzqu4DG0v8zg/sblKpmHoSoMxAKhQTbkTBtiZYWuvJWi7kFVPMevjZJeV4hNi+SpY9te9Jj+CqghmWFoQyVRVf9Rxb3SmOuns7pbKGLKyJl57KZVKJkVu4jcyv5tGKYq8c2BS4as2WQ7oGAJNuyjxAlnJy2sJzhVjFoCh2v3E5NzsljrDNhEJbqQy/683aphEVdewmA9wYA7tgWlx9ijat2XbqjQIMZvNWlTtwKTQzFGQWIYYyoH4men1h6a9O7nc29rVXDy3oFq1/mLd68o2hQcQN0tQCKkNF93eu3+k8s09bNP3q1qDXmAUYs/PE3uEK14EcHeJB7+y3PaMyJmvghkN7J7pa0+XoiB7tR/139jX8GEH0+s6BxXcOrPb5/cSpjYOdbTW9jAXH1dudefi+/n6qOk3FUJGMfGbBamSrikpnNLf/rAktgqSjFbuxthzKqASnjbmw5D+Kfyvux9FsFWE0+6JLT/b2YPIQTJmfww+dXfGbStCytBdPKWOqyqb4Hz9s48bzA4//0hGb5DOa+nzXSTvpwMUy2z+l+cSZDd2iZdtObFqaHjWburbl4N90VCwo0XdtBZ1p14LCPrAcmmkcQcpiYHeqS4yb1BpZammpALutTL0nDuVHbg/Y9NDwTRdYxyctzYyPitPsrhNjm3oIpqoRp217Jg2/+85IdWoxmkPngb28HGzL30XdvhGr41YwxQbIJdykW5fIb5VB1SWlfAyzeqJLt7Nv78Ckac8oVaZle7Xj4F2N5bzi6tsAzPeK1wgbPSinbCb+zCLExDyV0UUJexds7uO1Qbn7T/mjW7Xtv3D12Ns/H9M/9Sbn9Dp47o/BmkCm01eurSuNLJ3B7vjVV2xaRuW726yTq8IyYJkwWJ0mLJxzJnTJEx1YoqidS86M6rfwG23nyWjU9BODXKvRVMhlqNbfuHpjtHDowNbxHTRyacfBDbmxfgVR3M1D/JkBS+q18JezfL7SdO0WDj38/Z2C92SQ86LRPH4Z/K1mXyj2GBXEP7xuRF0Xhaz+a3SfnQPaYNd2Mao1otXVRW+IKCM54z3aSbtdmeHoO6g35/xZnR5FIcJpqJ8Pvkg0NDctQd+lN3T2594+LNpV4rSC6fzdfxzxkyO04n3uO53GqVdhIx6UxaXlIb2aqbyd2IKD56ev56xPMiIlLgo//lWWAHXVOJXoli7dhn3DjDQwQMJS27u62+Yl6ZzFVMjFlm214rGzE7ZUo2bjdXQbvWPv6vH/59hE0Z/IZbw3oXvmByy6iG9fNfIFVa2J8BW2lKKJhvHpOlTn/g5W135dcLUtl2BHmvUML6rOsP7HEMXtWbgljOARsnYavCTQn3I/jlHltcb3EBZW6qEylpaB28ht12XKpsW9sW5T58dyaMEiegIqykt1u06ddP9qAN3GtUt/8k4ShwE9PJribYBYWEoxtqw5FlHk3xee8nBzDItWfeasn6izYZDpPWvdb/+Hc0vT0OJH546/NApd2tHV+yNKKSYyRqU2LVLR7Xux+POEdEunwUvXDKdwtTLdp2z6AxvDaOXLkeyoO5H6XEd0i8/6/Tpeu21Imc5h8OzhXzXC15TsbUIEpcExrRy42PyYO1GZWs8ro1m3aetn6dsZhLkR3YcsPnw3PqsgK/pogLvGzZhz62G8AFcHdFvPMasX96J6jxR5uwxc9PfDtJTE+JeJV+aq7wDHKYVIpHhnsCWnfScqB5hjt5Ez58/272rYJcv0WbZ3+7Tu7ZUGAPvRLZu69Jm3axfhRipDviC2V0/v1vg5KqNxu+8nTe+EfV4qNz7s0hMjhio0fvzzlGLETT18YDT2mbx9feKkBcFJKovO7jJ1x/oRmoPyClOVmfS4AAeF49X/Bx9Hlu1nrfBXFtPtPv3f9OkUbkSLji0pjtyZRQhOqRr9k+XWe8D37Zrg5yvYjpv/9Uu/VjlRE8XuWri1T6c1vTiauYBNh2Erdr5h30x68c+FSAV4pkuv3k4s3DtCt2npOXL6dKoJFL1ZO4qTIsoiyBBtAjqjpe+fwXc/3bFm/Y4LCZo3luU1ftP64a74BUG0LCslCf9Km6Op1AgpVWIGu/tv66c/nLgrSqWqfY+5u+ZjbjZtZGy6kpdOMbY0B5aEvTtCRn0zyU39BtFtPvtpc8jJZrP/3BKq2q/kPGDZls1z/dri2KLlccHb/85QqUhdy79NyIqrbAaiqL/Wnhzy9VRPfG9JxcIMYZknjt6c0WuMs+Y8IaOx+4T9N5q7YgtQl9SnF1neo5euWTX1v4R7D1Bh/KXDN9XDOpbLV583J/jj6Bat+i77+wB/8swjscrKcBmyIWizvzYnLEhekRh6LoqiqmpSMu7NI5fjh876SvV2YDPufmsvXvts3YoN+/GfJmR7DBgzfqz/kL4+jnbKN9Lh5ynjdx6f+7xSnaS/j/8T4Du4reZlZbTo+uep2+02Llu1+abWg8vxHjZxyqSxQ7//nF1Z3237/DTEcfNz0sFPpJRwHbjFp70m/eJ1d2clGCxr37GTJ4wc9MP/fdm6sQUNKR3ZeVSvOTf0mFfmlyP+16U5eVeHpf13g4c67lxfdf/t/ufdQr3fEUMlebfn67eY+Hqxn3QRW6DE/1CZID/1xZOIRxHP4tOLRaSbosTJ+3F3YXH8j6SQTqHp2UdPGSyJ2YqZWrMIqUlbw6dl9d8WXUIFFkUEKX+PVZ9QYXovDC3U/UIUKim4t6IbkzPmZLrej+9QktAEEu4NdVgQRri1UhkLO5dSkpXy4mnEw4dUNYR90rDw5iz8ANtcTaXmiDljzmYRGht2SRd2QvdxeHhkdOK7EvzpG2VJxfE7e+iuG2O77c2BBZvxD9ufSL7ZDMU+u5f8/HHEk5iUPAG5HSD82B0DNCNI/bWMirMvq8dy9qNPppOuKaPeeV5zvC4BIRk6zQ77Wkvhm7inEY8eY4i5FTptFruK9sBQ1XCVpbo0k6qJYt1C3svoyIiniZk88rVrqCQzZJKTUQUw5XwAJpAzLCiZ/L1DbKdLwZv46MePwrFaSnpbINBRR/R0Le7MG43pOed6rs5n4hRg0hMwMREYmfQCATkC8v7WTN0DaTR30l2R2G4KXmYCxhdrwvjLSCsZYjc4+lHNE5SsWAOIx1TU2CXa4yeGmNr/dqWAeAKYWG9I6d25FAWgEMnqtSVat6OhagXK8wu35+Losvyq/o4YtaTKUKUNMIsQioJVK4jVZ3+y3i+jyXLOjddM7pg+i0KLdN4orN+K3uBTAyxEGzD3rvrIqSGMhGdIydMNhE91m6+pVIsoPhGr9z79dMklRJGif6gP8ziYA4tSL6bv/BuZFEc1yboo/kZFGVf+wB2VMthu8dewu82+qT53VCm3tmwAZtUGbIosJHdmVIVRhaHirFuLNCfcWb32JpEbP6r4GZCAPULKXx0bR/bq6WsrnPHncrTDgKWsc6EAACAASURBVCrOCSuEsHquCM0l9/KGFEIlOVdnklxXNKcRu2O4ZJNuQAqKlD7/S2vucaVhdln3BHdyzYAMxXCt+O48Hf+iVpjzwjCK91uWe3ES3oekbz0AEVRIDO7RlIgrqPwOulXDD10ye/3drAqD0pTJUEHK6SVzNuNuQpTyhWL8EomudIMhchoqrRCZRYjBfEx4KC2vwN4CfQkkFUINVFHUtoXbH2AfQiRFRsRiYU2wYDsbNBIRqcwkt74cKYk/Nm/SCsKdluZrKvqwGB3Oj7kRllRm1CfW0PI3ISv+2KG7mxnLzCxYlEqLIjb4+88/nYi9iQYLIZeVJAT/6T9iC+6olOF2K9XeIvty3+pDUZX7RFWZ6G9hBrWo+mH+1Xn/G7n88ivseuMqI8ulxbHH/xg2fG242oUjVfi6SQnRzEdhb4R61zTkSGnCybljphw1dluchbW1KRfvKDZYrRjmv+hcclVVpCyvHCl7c33NpMnbySvHGWemDfpl3a00gRGND7uU6N29bQH+s65SLXuKnmxdezAGO91bFWC5uOBZ0NxZuwzcIpZ2cN/Zl+VEuCgvNngf9VI+OUd2v7WhaVzs+xBkI41tjxLzMh/9NcyUNUqmx8j1l2Jzy/VYSlTGz3x6eonuZ7WZPrPPJBSUS3XHwwbtI/YQ6+rK8yK2Km7LMYsQMp/q/s30nhH8Iq8M++YpHiymrbD41fXlhAE2loXb+P2Ps/iKD6RiJVKAz3oaNN4Vu95h5qm4fEFleFUkNM9R7FsW75NP4CbVLL/9yaohECouzsrh6x0PYU6VvPgbOwO6Uqx1mbepVBesOp1998kbgu8nF+hra9jcmv/u8SmKxqbJ2TxYcAVhdZ647VpcPumGfGXFKMDGXtk6HtsZQ/5h7fZsYqGQ1PixWqzgvrkdSLhJk9V33f1sQWVMTGLS/oG64sjia/A3u/P4zReeveNRzwiwdsp9/fDkymHahVNVXliJTsfjGj8Ws+CfJT4+AQef5BGvGFKQwTax3Aua1cuUfgZzmM8PxXkd0IrIVRTL1hRFZ/mM23wxOouvr4dCKopTH55aO7YzxQugFcfp9tvOa7E5Ok6+yndQ4WVNf3xu0yRfw0u5WCn6Ljj1NFvP/S2YOzHj2ZXdc/yMmRthVzVuuhLzjiuUyiSC4vSn5wKJnzHCdCdspKRAY94gp26jhvT9xv0zh0+a22EnYmky7LNvhdlp8RHXz59WLnXC7wMTcBq0eOkv3doxy9/c2LlkR1K7fgN/6O7t5tS6ZbMmigpCJMIybmF2etLjWxdPR2R8YOVqlB3Ha+AQv289XD7FNjU1YlozsI9J8rkF2W/iH924cP5ZFbdI1AoWpmufkUP7dvny0zZsOxsLpIJfnJue+PjW+dOhr8282FkjcMYn5ngPGvZjt04d29tjiK3oWGPhFeW8ffk87HLIbVM/IMLpMmrSiN5fdWjdzAYV8rgF6bGhl0+fiayinnR0ZfbcE3XrN3f1xRxoWdgit14bjJfi0GX4T/18/+PiaN8c+4quwo1QVpKXmf4q+u5lE9q/Q9cRw/wwKe1aNVNIkYjK+cXZaS9j7105/0+KngVcnaLQmK69R/3U7xv3T9u0aGLDwK4SKMc6y3cpsWHXLvxjKl5d6RACBIAAEPjoCDC7b43BX24qSz8x3ODA/aMjUI0CmXJGrBriIQkQAAJAwOwEOF1HjfNztxMVvHv9Mj4mOiqNy3LuPmjczPkTPXH7TlHuy6e6VxGZXRkQCASAABAAAh+QgNu8O0U4xz2KIDLspladlUtJxqnRVXneP6DWkBUQAAJAAAiYgQDbPziDeOaIYl8EKn53cTp5C6cZMv/4RIAvqOo6tR+37cCwjjW7tgPLRc6P3j9tOeV+sKp1gBhAAAioCHCTXmWWo+3xx+SJbOQIP/XquqkTd5G3cAJCIFAtAi5rnxI+DEgx6DAmqPZO7lSrVJAICNRbAsyuM/5+nFGqc/AbEWO3eoaeXDuGYqttvS1sbSsO84DaJgzygQAQMDMBUeSOX77dwXTw7NrZw8m+WWPF1l8BN+d17OPwl+a9WM7MitdFcWAD6mKtgE5AAAhUSUCUExd6Ma7KaBDBMIEPe0bMsC519qmDe+d2dvpu1TBaa1Ra8vZ5CoxSjAYGEYEAEAACQAAIAAEgAASAABAAAkAACAABIAAEgAAQAAJAAAgAASAABIAAEAACQAAIAAEgAASAABAAAkAACAABIAAEgAAQAAJAAAgAASAABIAAEAACQAAIAAEgAASAABAAAkAACAABIAAEgAAQAAJAAAgAASAABIAAEKg+AXvfsct2n737OCbhVeqrF6GHZviyqi8MUgIBIAAEgEB9IcB0H7s7IkdE+HonwnuwxLW+FAD0BAJAAAgAgWoSYPXe+LQUIX83CxVHb/JmVlMkJAMCQAAIAIH6QcBh6pUCsgXALsZPPPGbB5iA+lGFoCUQAAJAoLoEOONCsmTqSQAqLXx+evOCgCFdHKorD9IBASAABIBA/SHgtDJCsxCAip6t96o/qoOmQAAIAAEgQCZg2hcSmfZNG1uoPz+JluamZ5Plwd9AAAgAASBQfwiYZgOsGttYab9ALJOI6k9BQVMgAASAABDQIWCaDaBZMOAj9DoMIQAIAAEgUF8JmGgD6msxQW8gAASAABCgIGCiDaDTcfMAFEURCpEQBASAABAAAvWEgGk2wJLDaqw1AtIKYT0pJagJBIAAEAACVARMsgEsH1+PVuoUcpRfnMGlkglhQAAIAAEg8NERcBm+M4qrPSMsyzk3nvPRFRIKBASAABAAAngCDr2mbjp29UFsRokEd00cKss8OxZMADQVIAAEgMDHTIDpuSjsPUK4IlRxUwQifHN2qvvHXHAoGxAAAkAACNA448/laO4HUt8ThHAjVneHG+KgeQABIAAEPnYCzM5rH5eR7wnF5gH85KMT4HsBH3vtQ/mAABD46AlYGC6hLCcyJtuiia0FndmUbWejviuIbtPyy69aZ58KeSEwnB6eAgEgAASAwEdBwHng6ruZYu3SgCzv4iRYFP4oqhYKAQSAABAwhoDD+HO4rwdIYrbCp8OMwQZxgAAQAAJ1lYBJZ8Ryrt2KLlJfD0FnsNiOsDJcVysW9AICQAAIGEHAJBtAE+cU8+QaqVY2YAKMQAxRgAAQAAJ1loBpNoCGoKi2KAwLiyqWlOtssUExIAAEgAAQwAiYaAOAGRAAAkAACHxEBEyzAVIZonUFfUQUoChAAAgAgYZJwDQbQBNKpFojYGFp3TChQamBABAAAh8JAdNsgCifV66ZCTBYnLbNPhIMUAwgAASAQIMkYOKirpVz/1/6u9kpLQfd6pMOX3VoYdeYzs95Wwyfl2+Q7QcKDQSAQMMi4Dz3Lu4bApW3yKGS4rijAXCNaMNqCVBaIAAEGiQB9qC9CQKdW+TQiuiNXg2SBxQaCAABINCwCDB9pp94UYz/oAx2kWhZ+HK3hoUBSgsEgAAQqP8ETFwPUBRYlvvswr7LLwRyBp1GlyPSirL8pNvbly2/9BbWBOp/g4ASAAEgAASAABAAAkAACAABIAAEgAAQAAJAAAgAASAABIAAEAACQAAIAAEgAASAABAAAkAACAABIAAEgAAQAAJAAAgAASAABIAAEAACQAAIAAEgAASAABAAAkAACAABIAAEgAAQAAJAAAgAASAABIBAnSRAr5NaGaEUq++SfbO/b2VNp8kRQULwgllHXtJorG5zti/80dGWTpejotTzS+bsjYU7jIyASYoCbE1nBimAABD4sAQ8Nz2XVH6+QC6X5V2czFFk77gyQoSqQpHiGzPsP6xOH0tuwPZjqUkoBxCokoBp35KsUtyHi1DCK5doPm0sLHuPKLJGSgUidaBcWMZVBn78P+cRG648SUxNS09/q/ilp6c+OzLJqfrlruNs7X3HLtt99u7jmIRXqa9ehB6a4cuqflnrYUrHQavORyampr5KeB5+I3j7/KGeDav89bDKQOXaIGA/5UqB+lM2khfbOjMVmbBHn86UqeYB0qS9vRrEu8HssTNerJ79qAove3NkELva2OsuW6b72N0ROZq5nrK0CO/BEtdql7XeJWT13p1AqG5Uxn9zfWU/mPPWu6qsIwrX23mApJBbphryyyX89/lKv78ol8tHK8nK0TJuJt8wZabvnyHxufwKcQU/P+nqst7102Q0afdJMwvyug7dohpfhlDTMgdbw+Sr95TVe+XhHb92bWNLKC3dtnHTJsohQIP42bRu2ZRQ3XQLO2e/hUGH5ng2HAgNoqY/VCHrrQ0QZWq7+/LSIokSmOjd+zK00jLIy3nvhYYpsv0CAgZ7tLazsbaxa/WFX8CUIcpFhfr2K3qRkC5QWT7z6G4GtuZRhCjFYfSMX75uSmyxcllpcsihY8kNZ+m/KOzK7cQSqcYPqmREt2r9319n/VD9qV9t1BfIrB8E6q8NyH/PVy0IyMu4hZU2gFb+nleusgECtWHQWxHWbVqwtCNKOquFvbXeuHX5QcKWmb+uOBieY7bVD1HN2dYCL85/v/dqoW6vcllRzJktC6f81O3LL0fvTWg4JoBGyzk5uZOrz4+/zF4ddPt1mdr40y2dvu71JcwEaqHhfewi660NoEmKSlUvAMrnZqo6AUlhicpDJBeU5Imrqj060alQVfS6+lwUd3rzvuhC880FzMHW7LAaf9qmpcYEiGMPT/Kfu/7AhSc5Zs+oHggsirt57K+lAYMDjr9UzwjoFpx2bk3rge6gYh0jUH9tgDijoEQ55EeF73MrlwMwZ1B6fqnSGSSXcPPeVrEcUMeqQkcdtrNPz759evi42n/o4V1dZMu0b9pY4wdHS3PTs3WANbgA0eucYrHGK9SI1bwGi0ANDh4UWEXAst6S4Icf3LLVontry/Kk86fUg0FR3LG/Njf5vq2VKPXqibTaLJtL/z+mDvVxbGaDs6KopDT19t51h59hxofT/bcFE77/tKmVZqqBikszn4bs2nZDo5d9jymzR/f4jG1rWRlJxn95eWPgiawvxy9b9Ovg7v9xam7LwJ7IUQk/NzU+6t6ZXRt2h5k67mV6DJ/za39PezsrraaoVJCfcP3A5tNx1E6Uf5ktZb1ZNbbRsqTJJNSaUyZtGIF0K2tbsAENo66hlDUj4NRjzKzFKwIDV68NjuWpt5fK5agw6dy61fhfYOCKRTNHdXOkyM59URhXm1R9Vg37PyqI2tiVSWMNDHpJ3q+peIoU3/7DRSWPPeJ4uoS4pxPhha2auCe6WEra6qnKAK3If3oowJtqVsD03hqjOTOHnZpLOzZUuUDI9Fr5iE+pKYJp6ksliqK4NQtyHrzidHhyVjGPX1qYmXjv2Hw/h2oIZPXZnyxVk5ZlnR1TLxfwq1FwQ0kcFt0vU9cuKn4cSNVWDaWHZ0CgwRGwH3syvYK6h8X15Lh/IsJXh4aT91twxpzRnEMgJZPlXcLOLDvMD6XueTWdM43mFPiYbCZQcXFhicygemhF9j8repEVoumzAexRp9+pT0yQNEXyLwfUfj/KGbo3nogClXEfrzd9Hy7YAIqXFWwABRQIMo1A/V0PMK2cqtisr7p5t7Mhb6Y3JIrB/Oyb7/5DGi8L3hWUIMTdeSoZcllhVpqAJkrNzKeKIK8ozM5QeTHKX2cVqjayqhWgW7fg6O71J6hHt3HoOX/fjrFGjvhEiXGpXNJGQqU8bMaSnpgoMFR0czxzmTTtZ3c7QiujWzT3GTttuMnmh45fwUdR1GzboMxRzn9LBkpoQfQG9jr/W9Q/rnwbWKORFvPKqfpmA5Uql2EnDUjOZ9HD7Wu2XHjwLPZlbjl+Nw7Kj923eFWYiMa9uHz+vhie+hl2YC07KTY68ubhpQs3P1cJKzq2fMHWSw+fv9UxJ3KE//pO0LIpw3/84X9j52w68yyvAm9w6LbOQxcuNe4csCj3+aO4ApwRwG7Yy3xy6cDaWT/16L84srad6qzPXdo21m1jFi3bdTT1XKslh9VYa7ylFVUc/jBQox/RI6RCIlUXh05v3LTdB3HufUQAoSgNkIDruN33X2YXlZSW8ngCMaL1u6CIWMAj/EpLuUVZyaF/jXTWy4npOe3sayFuUQHhPt06wJ7m5L8npkQtHBG8OjHZXZ8M/D13Sm8NUhK9fRDBY870nnExg+g3whw5U/C9KLUvyHXU7mdFuMUFRJB6cX5Pk0fg+lSvOpzps/k5hesN4YctMHIio86D1XdvkgYBKonZ7FV17h9/DPaIkxkaVx/Cf7TS8+MvM5QQCJiNgP3060Xa7hvh31tQnbVKZpe5VzNw/Rwqzom4HfNe7dVHKzKu/FF5mxG14iQbgApfbKe458gx4FIOwa8vywoZi+vMdW3A8B6zz6UKcMvBmCkKnuLxgQeKzC4rw7F5DuGHygpuznajpqEn1GX4zijcIrws59z4D2jJ9ChVF4Jdlj3U1jEqybm7tBeAqQsVAzrUCwLmsQFYUVk9l/2TQ9rio+z1UEnevZW6C7gEOkQbgFbEbKG0GJzxIdl4I4CKo9bj5hYkG4AUpyTnEWYOSNmzDR9mGxCp7pmekw4+K1AbSRQR5kTsGm3kHW8OvaZuOnb1QWxGCZ4uKss8i7d/9aKx1ZaSnkvu420sxrcgOfJWyIEVo7zr5/VXtQUK5AIBXQJmswGYaE6/dY8KiVs6sf0vz7YNqtLtTbQBSOG1adRJvLbgN3/K5cR7UUk2gDjwrrRH4owL0z70NEANneM1MGDe0mWL/5jYz0NnT5NuzShDmJ6Lwt7jnHWqMiHCN2en6vWs6ZH1EQezeqy8X6C7mRgVvw2G7bMfcb2br2i663Xmk92QJBXdO3cuirjNh063bNSseXMTKTAY1Od8mFYMYl3JEVmFZj3QiEzo1o7/W7X/X7octSj2yoFNgavWbDl0I4FrhLKKKE2++sq1qeKMHP6HljzZOuGXPUlGymgA0fj3l4+acSJV890MVZHp1g4e33z+gT1/DQD3R1jE+ntOuC5VBtNr6pHg1T+0IV7hzLD7YuxfZxBk2KRjKcZqS2e1c8XeXPXdF9pkTX06tMFbB1TMzcuqYluPXFpaIrJrzlKpRWewv5m5e3dKvzFHa/UINVVZHToP7OXlYFv+Lur2jdgiqhg6YYKk1EwR2qYJwfQxmneZsW9v+uBxh41GqiOY5tB5QM9ObZlCE5Spu0KYXRcEbf65I5NkLOVI8Zv411U0EN1SQQgQaEgE7KddK8Rt6RFFrDBxr0olLKbnb6de4RbmxLkp6TyNDwNFSl8cGKU+G0yBl7wmLE49OlRnWa/SL4Lz8KCSpL34c1a6viBEmH5tUU+30UeS8QvDclSWH7r4gy4MuI3ecT+jTLVGjkpLU2+tHWwcaKbXmLUnbkTEZ/EIiy2oNDNkPLXDjIIvMch15Lawt/zqKIOTU3eEYA6zJfcJJ9ZRmSDv5bOwSwfm+RkHuUpkEAEIfLQEOJMv5uGWWaWpRwZSLaM5dhs5c/5s/646HbMCDGYAgvEGQFYYvrYPx23icVzPiyIlMXv89W0w1dkbigpTz0z1ws/i7fuvjygkHB9GxckH+uGVJa8JlyWfCKj8pgiz29LQfIK/GOHH7xtWnS1Q1WgJTJ9l98lOfVSac+V3A1ZRNxvngavvZuKWuLEPSE+irA7dpPgQpvfisGLSCgOmzOVppihTd4Qoiua6IkKg2d+MItzofWP+rTUfw+zhKRCogwTYw46n42wANry88juu73XwHbvi0K0XOQJF74vKSqK2Enpdtme/MVMDz+ENADbk3zPCSVlSbEv/+TSh9u2UcZ8fWfTb2AHeOuNXHRug2E8kLoy7HrR+0R9z/ly143S4ZuCqnggg3AfL8NcGMd39fg9J1dymg7svSKmM06jDScTJgCTrzqbfJwzuXNuWQN/5AJ7J5wMcxp/L0lQWdj5gK+W1SQZbGdN7YzTxM5RKnggv9E/jOdQdIYqysv2DtecDUGHM1m6wAmCwDcBDIEAg4L7msbabVnQHqJSXmfA04lFkdGJGsZB0cY/0VZCfeuhtP/LwSwF5zwqW+t3DbYOV+17cpp54kV9OjoF17rl3lxHfUyobgHP66P4TG+1Fru2JmwQ4Tb1E3pmKu5ZIoY3T4O1R5F36it6vPGn/EGO36VSr7bAGHMabJk1hJNEbPUwUyJmEm7XJ3hyt5GyKENZAMyhTd4Qoim4/89Z7jTuzwXxB25RKh7hVEmjQ+4LSr96PJ9z1QLdktfuyc1ffb73d27dgElZ45SgvKzVd9UUC9nc/fu/SmLxnBUvt2LX/wO5Y92zfd2A/j1aNyDFodGv774YMJTh6qqwiQgQ5yk8+MX9KYJhKE+whu2s3r1a4a5V1BLJHrN4y1buZblUzGrl829O9NkeO/OTX2QTClcohxVmp+Tp6Gg4Q5xTztDdmWNmYrjY/JT1XiL/aozJDlJvzxnhl6o4QhfYWtlZWamyKL2inaZuFYZrwFAioCeh2DA2IjejJ1rUHsTsdKG9/w3OQiwueBc2dtUu9F0UmrKC6hw1Lgu3YVH7WUo79R/1DpWKR/u0aKD8tPh27DpgqLXaN0Js7G8b1/yWI+O1E3J0xmmTYiFvzb2bbVs11rJHyKXaITSjQrwyVEiaGpR3cd/YlyQqgvNjgfWeN2xyEyw5Bcf03w8KCeg+tIf1SjgRdeC0iWgGUH3dq/2kTlKk7QhRFtcAPVOR4QoZAwDMgAAS0BBz6Ljj1NFvXbaP0W6ASXsazK7vn+JFWdJndFlxMLBBIsH5J499AEQk/4+6qyoseHEfueZpXLsM9xl5QRMzLijpMujqI6AuS5VyY6Og9asXhaxEJGQU8oVgmEwtKCt8lProctGxE5SovufbYA7ZE5GKeK7UqWD4FdxbijlG5TDz8PLeMqCymrSDvxYlp1CLJWdTkb6b7qE1XYt5xhVKZRFCc/vRc4BB96+OGsjHP3dFMz3HbrsdmqpV5dmHNMFMWhCsVrDtC4O5oQ00GngEB4wkwXXtPWrw1KPji9dt3/7l76/qV8ycPbl87b1xvN6qdQsbLNSKmrg2oxo4XI/Kp71GYPfckwTdkSLVIsAGiiJWwHbS+N/N/QX84I6aELkr55+Cafw7+CxUAWRpLQCjB+d8sLK2NTddg4iFSCXxTocHUtvkK2qDXA8yHESTVOgFRPu7TDwwWp22zWs+yzmfAdLJna76IJBeV88AG1Pk6AwWBgJqA05h9T7N4IrFEht9BiiIyqQT7iUW83NgP4a2vPxXCmXhBe302KsoKP7J6xshebrW6t7XO0nHsMjhg8Y5LCVztBmZs7zLhAEud1R0UAwJAACPgMPduKeW33rUHAtCKqA3wTRBta3Gee5dwLULlon1x3NGABnWNKGfItogcoc7RE1nmGbgnFLoWIFB/CDguCyeeT9P2/Zp/SeJ3fNCbfeo6PfagvQmE886Ve7cqojc2oI+KsUefziR8TUhpChFuxGo4I1zXG3Dd1A/WA/6leim6Hx6LTQT0544d+XkVHvayVnfv68+9Tj7hXpozYcGpuPfEsxlyqai8ok7qWytKyQpLSOdH5BW5j/fNnLQkHNpKrRD/2IWSbpz92Itbp8rHcus9oLtbS1sLOrkWFAcTuCmPrt82+rL9OlWwWlbGdcAf00b17fzlp/bNGjHKMyMPL5m6IdTYrxLUsm4fQryL/5adCwZ7cCwr+MU5qbHhV//ec/BhzofIGfIAAkAACAABIAAEgAAQAAJAAAgAASAABIAAEAACQAAIAAEgAASAABAAAkAACAABIAAEgAAQAAJAAAgAASAABIAAEAACQAAIAAEgAASAABAAAkAACAABIAAEgAAQAAJAAAgAASAABIAAEAACQAAIAAEgAASAABAAAkAACAABIAAEgAAQAAJAAAgAgTpBwHHQqvORiamprxKeh98I3j5/qCerTugFSgABIAAEgEBtE2D13p0gRnGfuEJl/DfXV/azr+2MQT4QAAJAAAj86wQ4Y85QfLhOknN9jifzX1cOFAACQAAIAIHaJeAwKugFV4KfCVR+yTv1yGB27eYM0oEAEAACQKAuEOB4+o2dFXjgViofUXuFUEnCru4wE6gLtQM6AAEgAAQ+CAFmj92JmhkBkn95CiwKfBDukAkQAAJAoNYIMIyXLHqdUyyWq+M3YjW3MD4txAQCQAAIAIE6SMAEG0DQnm5lbQs2oA5WKKgEBIAAEDCBQHVtAI3BABNgAmeICgSAABCoiwSqbQPqYmFAJyAABIAAEDCJgEk2AEU1ywFYJnST0pqkFUQGAkAACACBD0HAlH4cqZBI1TrR6Y2btoPNoR+iiiAPIAAEgECtETDFBkjy3pdpJgIWTl69O9aaWiAYCAABIAAE6hoBl2UPBbhjYjl3l/bi1DUdQR8gAASAABCoJQKeS+6XaIyAXI4iwoLkyFshB1aM8obbRGuJOYgFAkAACNQZAqweK+8XSMnXB8lR8dvgMTAlqDPVBIoAASAABGqLgMOII6+EOlYAuz+oGywR1xZzkAsEgAAQqBMEmF0X3Miq0LEAqCz3YgBcH1QnqgiUAAJAAAjUEgEmth7Axa0HyFGZIO/ls7BLB+b5OdZSniAWCAABIAAE6gYB1xURAs0cAEW40fvGeIADqG7UDWgBBIAAEKhlAmz/4AyZ5gsCwpitsAJQy8RBPBAAAkCgdgmYckbMuhXbjq5WB3n79HqcqHaVA+lAAAgAASBQqwRMsQEWtlZWamXkaBk3jV+rqoFwIAAEgAAQqGUCptgAmoWFZhpAo8lRtJZ1A/FAAAgAASBQuwRMsgG1qwpIBwJAAAgAgQ9MoNo2AIVpwAeuKsgOCAABIGB2AtW2AYhUgphdGxAIBIAAEAACH5KACTaA6WTPtlEvCMhF5TywAR+ypiAvIAAEgID5CVgaI9Kxy+Afen3fz3/0F5ZqG4C+z00XGpMW4gABIAAEgEC91JdP1AAAAQ9JREFUJcAZsi0iR4iQbwiSZZ6Be0LrbaWC4kAACAAB4wiwR5/O1BwN1hwRRrgRq+GMsHEEIRYQAAJAoP4SYPXZmyQmTAJQUU7E7jFu9bdIoDkQAAJAAAgYTcDFf8utF+k5OZlpL2MeXj60ZlJ3B6PTQkQgAASAABAAAkAACAABIAAEgAAQAAJAAAgAASAABIAAEAACQAAIAAEgAASAABAAAkAACAABIAAEgAAQAAJAAAgAASAABIAAEAACQAAIAAEgAASAABAAAkAACAABIAAEgAAQAAJAAAgAASAABIAAEAACQAAIAAEgAASAABAAAkAACAABIAAEgAAQAAJAAAgAASAABIAAEAACQMAoAv8PqFUdBqZAboAAAAAASUVORK5CYII=;" vertex="1" parent="1">
          <mxGeometry x="630" y="580" width="145.8" height="60.25" as="geometry" />
        </mxCell>
        <mxCell id="8wQd0vTRtWPYDtNzIvMa-47" value="" style="endArrow=none;html=1;rounded=0;exitX=0;exitY=0;exitDx=0;exitDy=0;entryX=0;entryY=1;entryDx=0;entryDy=0;dashed=1;" edge="1" parent="1" source="8wQd0vTRtWPYDtNzIvMa-46" target="8wQd0vTRtWPYDtNzIvMa-29">
          <mxGeometry width="50" height="50" relative="1" as="geometry">
            <mxPoint x="760" y="350" as="sourcePoint" />
            <mxPoint x="810" y="290" as="targetPoint" />
          </mxGeometry>
        </mxCell>
        <mxCell id="8wQd0vTRtWPYDtNzIvMa-48" value="" style="endArrow=none;html=1;rounded=0;exitX=1;exitY=0;exitDx=0;exitDy=0;dashed=1;" edge="1" parent="1" source="8wQd0vTRtWPYDtNzIvMa-46">
          <mxGeometry width="50" height="50" relative="1" as="geometry">
            <mxPoint x="760" y="340" as="sourcePoint" />
            <mxPoint x="640" y="400" as="targetPoint" />
          </mxGeometry>
        </mxCell>
        <mxCell id="8wQd0vTRtWPYDtNzIvMa-51" value="" style="shape=image;verticalLabelPosition=bottom;labelBackgroundColor=default;verticalAlign=top;aspect=fixed;imageAspect=0;image=data:image/png,iVBORw0KGgoAAAANSUhEUgAAAkgAAADjCAIAAADxOHz8AAAAA3NCSVQICAjb4U/gAAAgAElEQVR4Xu2dd9wVxfWHAyggIHYRUVGwBVERNMaKIdh77yQaCxJLrFFjL9h7iaJGjWLvPVasWLBhQewCigiKiiAKmt+TbD77G+fM7t1779777n3f7/uHH5mdOXPm2b1zZs6cmfnVr/QnAiIgAiIgAiIgAiIgAiIgAiIgAiIgAiIgAiIgAiIgAiIgAiIgAiIgAiIgAiIgAiIgAiIgAiIgAiIgAiIgAiIgAiIgAiIgAiIgAiIgAiIgAiIgAiIgAiIgAiIgAiIgAiIgAgUm8Otf//rFF1/84Ycfpk2bdtttt7Vr167AyjaSaq0aSVnpKgIiIAK1JNC/f/811lhjnnnmadXqf33jl19+eckll8yYMaMW1V511VV77rlnLHnrrbe+6667alGRZIqACIiACLREAn/84x//Hfrba6+9aoRj5MiRboWHHXZYjSpqaWLnaGkNVntrTaBLly5rrbXWMsssM//8888xxxxff/31e++9xw/4k08+oerf/va322677XfffXf11VePGzeu1so0ovzcAbZp04ZZSK9evRZZZBHmIlOmTJk4ceILL7wwZsyYRuRTO5033njjoPB55503mF59Iq/DFTLXXHNVL7NQErbbbrvtt9++Y8eOr7322plnnvntt9/WR71fGDZm33/9618322yzBRZYIJ6Je3r8+OOPuIO/+eabd99994033njooYc+/fRTq+shhxyy1VZbLbjggq1bt46fMjaZOnXqiBEjTjjhBORE6biVTzrppHXXXZevx6109uzZSL7ooovuu+8+cq600krHHXcc3WWSGxrhX331FfqceuqpP//8s1XJS8ldYMkaK8gwYMCAQw89dIkllphzzjmTitPY6dOn80awH3w999xzD91WMPOBBx7Id7bQQgslvdxgqSiRKjBOSEhhu/nmm/Pe11tvvaAcutGbb775iCOO6NChAxn69OmD48XLmeMXGNShFol85McffzzNmXvuudPlY85Hjx594oknTpo0KZizeoCe2G7duvGrYSTBL9rWyAfD8OK8886bOXOmfUoKxU8++WSaFr0yUmbNmsUA5aijjuK37xb585//vMMOOyy88MLep8XP/MMPPzzllFNGjRoVrKJQid9//32d9aHXcmtksa3OCtS0un79+t16661RFZtuuikj3SFDhtS0xrBwfgChiXhaGt3c448/zjDclUgb0sr8+98HH3xwnP8vf/lLSmY+teg3OXbs2JRs7qPdd9893LxfpuYuMEulZeWho2QMkbHVcbaffvrplltuwRZ6df3+978vV5TNz/gj2AQGJXzBNn9KyptvvmlF5fUFWsm1S7n88stTmmkfXXfddVaZvADGkjEwRx55JMMRq4CX8tFHH22wwQZWJVJuv/32YHFsFWPwuMjaa68dzBYnTpgwISi/aIm/+c1vmFLYttTOQ8io3a1uxx13LBqTavQ54IAD3NYx7K5GWlll/386RbEVVlihrMJk5vfzu9/97rnnnmNQFpctKWfFFVfMmLl9+/Y9e/Zklrbssstm1M0VnlQkd4FJFVWTvtRSS3Xq1KlcCUyRmfu/+uqrffv2dcuWfClZKmK2Z7PhTnnkkUeYC9pHKSnBplWgZPALTKk390e4+MqSaduYI8BIEzzA11xzzWmnnRbPtFI0XHLJJe+//36Wl2yepJ8SX6bb19sWeaKY+TFat/KLlkKAYo8ePTbccMOkKWzuCh9zzDG4WF5//XVmtMOGDbv33ntzr6IJBXqO1tp5dG0bf2HYPvjgA5sjSwqdy9/++xdlLinn/fffj8Uy+kupAockrg9m6J9//nlKNvcRI9CSOXMXWLLGCjKMHz8+dtiWW5x+hPAqd1hd8qVkqSLow+QHueqqq3rFmcrzIp566imcb0EHS9C5WrGS3heYpS155Un/gG0t9vvMEWBUHZPCQYMG2aqTUjCE+CStq8P9nXplMWys2EWJH3/8cZLkKJ01AtYg0vMU5CkLkA8//DBuj/rowyRmyy23xNm72mqr7bvvvjWKvaxPW4pbC9834aeTJ0+mV3KnkDjWGcLwRw9l5+lxChmWXnppmsekgQBZFhL4Prz8xM7iKHNXIzp37swGDj59LyeV8oPZe++9I16s6zKuwTVHLVg7LzOJOC1ZW/rnP//JJC8L4twFZqm03Dy77bYbfT0o3PZi7fDjRX9vvfUWIRiWc5QfN29cI13/hRdeyEvxXi6QWfVM+mNhzK3aTsuCbiheMauhcdU4k5k9ePXymVkaeX2BVnLtUrp37/7AAw988cUX0W+E/3rvC4C8MtLpNJnaumTQKl+ACBw8eLD364j+yQdz8cUXs2bGb5zVa5uHJcDll1/eBcU/n3322SR/5mWXXRZl5tM699xzGYfxG/R+mzQcnz/L9rXjXwvJoHD51M4VWQvliyOT+aiLseQAqOaaM1JzFXL7RwbabCokogErYn8bhIG4yj366KNunnRXO+FzbmbXt+k1mNgTr+qMxiwJXO4CkyqqLL3k98GUnwUV+zrgb2vE6eHmpO02T5yCZXUzW8NmV5jwawUFHnTQQa4ool2C2aLEvL7AlCpq98hGjScF1KBDvgAXW2wxrIv3JTBqJJLLbS9Dz8MPP9wOEAmVtFiYjttPixSKe4aQsueff76b2e06rOQapXTt2pXFKhxImFtmwwTjERO3ySabeJ6xlNpTDBtjL+QTuUqsaYoE+4jRPH5Ohv4pf2Ro27atLVsyhbUV1r8J3Ro6dChf1AUXXHDssceyJBFcOygpjQzzzTffNttsQ+fAYAgHwKWXXgpD1ulj9fBgg5cJDBEiSQJLdlxJBWuVntKtxFXyarHA3hdP4JyrkwxbLm8o4/fxj3/8w3sdQS9ZvoaNKaNXadICOON61mLjzEmRgRGxvL7AXPiXK6Qsw5YvQPoa73XgZVlzzTWDTSCU0Vqs9ddf38ucZNgoe/fdd3uZm9CwMebGAYtzzzYqSsGxwYw5KVLGbYg1bAydmQrjWmcOGkt7++23zznnnJJLjKx0PvHEE0laeenIDL6spETcmMOHD8cfEJSPm+Sxxx4bOHBgUnGbzteCByLJCcR4lLEC68rxL5SUpKXcjB2X1SFjCm1nuEzc7z777GPD5QJCsnQrFLMBjd7OJBm2ANzykzJ+H97sig8d/5itLd2wMQbfeeede/fuHRVkAcD9wdhOwfqQUwbpq6++ejyfuPPOO61ucUpeX2BKFbV7VJZhyxFgMIz27LPPTmnp008/7XWI//rXv7z8KYaNsl6gbFMZNnbvYBKCnbtNpI2My1OweIbtxhtvZEXAyolSsAGsUKZs9rA/zCRRpGOiUhRzH7HpDW9wiij30Q033JCiYSQWgTQko0A3mxsVz+IRYwtCInC8e05sQJHo/ZGTSLd4ySl7272QXfz/cZBHopCM3YoNzkZpV6gMWyLich5kNGxMlbyPksANW0+KYcNjFq0PMdCLog9YQIodVoxVF110UU8gb9yrlK95jz32cPcvukUY6+EE+9Of/uQGtlgl8/oCreQ6pJRl2HIEyFKW9y54j/aVuQRwUXpFeMveq0k3bJ73skkMGxsirQM2vYOmP41Hb/aT8AxbuqjoKRv7kiYN+++/fxYJUZ6Mho3dk8QcZBdLThZZg9sZo+bzqFyBce3xeJePLWmql64qHypuWPsiklKuuOKKoMCddtopKvKLqMgkKUnpdg4ejAhIKq70fAngUvcEsvJfVhXssWUJgSK4DSPDRkgq/4M3g92K/M9nn33mCYzOE3ET8UvgFCVkgG3L9IneUgTD6rPOOov4BexfWboFMzeDLzBHgGy88SgRv25fmZvnwQcfxCS4KTj0ODgmSDtKjILC4gzs/eKzSclf60eMxphRlbvKzoyNwxySTFEFOmMm8eAFh2vPPPMMHXcFMpOKUAsr2UxS3QwMQKmIXxbrXjfddBO7773i/FjQMLiGx1yNnQaewKTabXo8il188cWTRrS2lJtCh8OiXXqe+Ck9TFLQL5GlUbbKj9QihMQ6nejOMiqnbLkQoBtiqMV+I7zMTKBdmYxoGNeUrIVeKR664iqM88eDO5wY/CXJwavjbZiLcrJCzsozfwx+X3rpJRZfsY4Y2mDof5Lw9PTm8QXmCHCVVVbxiL3yyivpDHkdDDW89X9eKCHvSQVZWceNzIJTnIGQV/aWVLw1JamiLOl08aww2dOI6Kbp35lNsuGa81Aw+Rx5w5KMK5PddZgBu6aYUi/WAi8Uq0psqyWs2jsBC8tBqAXuCk8CrjkUwKtPKIft9xFFrH9KpfYRMXqMJ9z066+/HkeItyeK1bK///3vrrmiFHF/vC9PJqfhcOial0jo7BlnnMEWcuJdaSmzsY022gjLwe/OqhSlsKjPZxC0nUlFonSsMkdZpeeJn7LPJKmKEiMVzxFEgGIUyUOk8sorr8zEnyAZtlzYySDdq6ucXJEZX1V6Ns8VabEHU3AKBcV6rshgWRIzHhPA587vPEmIl856Et1NlqFZXl9gkECtE8tyReYIEM+zBzxLnDrnnHmlCIhwEXmuyOeffx4/mBfDzBp+VKTOrkh6ZE955kbxsN1tBa4Ioh7shxrcimBdkXjYaKNrlpiduMFQkWSypfT7wQ/Pc1SWdEXisosDWKJK6Y2DkknkGAQvmoamedNKfo829oTFVwIjrVjGEBYjBi/OSSwl3p133nmHnzCbu1zgLHOQ6P2Rk/w23NpWHaewWGgDeqOKSviovG7Ffg3BFCy8h0yGLeX1ZH9UgWHj4ImkcOR8DRut4LO2HUHwC4kS+RWxzBvc6x0zyesLzA45x5xlGbYcAeJ19LB7A81gG6+88kqv1LXXXuvmtIaNpwz83VKsFEbB9HU2bDhyPeVPP/30YDNJxCzhNvDyE4Ng89vvOThEwGwwz/AEMkmyAlNSyjVsBAG6NeIZTgpKjCpl3uZp6K1Z2O6FrVwpq3FgJLjUlZnku84YHJACJ+kRW5+9RkX/BGZUpKo1NrdWhir77bdfLgsnSY1RehYCjIBYQaVv5Y1kyV99HtYq8GHSZWQUxaAPHwBTt4z5M2ar2xfIfCXJE5JRVS9bXgDtWIFfe0mV7PKPlWOFcDo5g484nX6Qk5Fttpqm4D3yXE8YJM5AT6qUllolCXwo+TYJiWQfhRVLdXg4vXQbOWwLVpPCSdlu8SeffBJnJl7WpD9ca8yc3CLe0b6eQHISSesVcYtHkWVxnCDOXu9E7Gpal7EsnnBiKb3MOKXjyWvla2yuUF4wVxZx6FlGteqcjbkLDnF+e7gO7JpqBcrkLrACHYJFmKHjMElZILGl+ILjbxS3WBwTnKVPjKWxGYu9MnjwCduN1hJsRV4KwyA69Ly+mfp8gXxC6MwMBu8rJwoGtzOXbHgwQy4AeZXxMVdRLSUjvMlm86R0arHyeMOYxLi3YvLh5T5YCbKKE5dbbjkvA708hxOllCKahimOG+vPrIvFNnvOmSuEWZ01/1EGlqD49tyDT3EVsqoX3GmTolj2R16rmX7ZqLF0aV6grPWdJp2xEItlSseJOdz1wRo/65R1u4wmVoAuC/NMHDj3n3AEJb4KehJ3p0q1MzZeKlsfQIOnPp1mEz4FPYvJeOcIeKVXql6T3AWWqxJDKsaeHJHlHS7HQgLDlvQ9Ol5dLHezdy36i++YIA/rYeVqRa+BYaNvZSEaLwT+ivSz71juLrcKm7+eXyCnKUbfD243Yj6tMlWmVAnQ22yDMuzWKKmSXfLMYtgQy+5sVkdi+cQlppwWVFKNCjLY7zzLoU02DNXK8ZRJubguGPVQUmAFjY2KEMRhByLlSnOX8YICs2AkTpAN/vi6cxzeldUQhlYciUKoDjEfaOLtv8w0Y2M4EwcNswDImIilY1xeLEtyxmBK58Vbd3W1EUEpT72yZbXZyxyPaPA5YORZZKpGGmVzF1iuPpyaEzmCMB7eieA4yjhQJ97PUZZk+qn4ovq4z2J9nm1nuKdYNOb/PYGsFTNXYwSHryZyRDO2Jb6AP5xCeB0ZUlGcj8++fexftKe4pJIVf4ElJZeVwR0sp5wkVFboeY4A2YfUv39/t0U2TtJrL74Hu50ru2eJ+6fwCMVvlp3IBB2UhbSazHYWlbSu7NYSbWhxU6wcT6v0gE8b6BsMu6impXHZkqqWrCUaCKYLzIKxZEVNmyGTYWNmkBRil669N0UNbvKIJNBvek/TzxJMr9d9ysqqu7ha/WAqd4HZ22Jz4glhxuxFGGO8OQyaPSs2f3oKsz2GKQQf47BFApnp9VisjkoRu0/cv+vLXWeddeK1d9ao7QXE/ObZKcUffgNixD1HGb8f1kjwwqVrxdOKv8CSksvK4FosQrcx27ZTQ6C9niPJr5svQM5twjvktoihAwMdO5OL83D6n3d/EF0nB0dlxEIcJt6L+NgILJxnWTPKqSybPZWt5OVWfHJ2I7CV4+mTvsmd8zm9/LW7yoDvjY7RPfQSL0tw/c8i5SNk6MmA2J2xWYEUJAaeQZKVUGVKlrXbKquIi1frikzXwzNOHOSfFGyDP8Qb0edl2Dyxdt6Q3gT7NHeBtoqyUjj51F6ZTWhW8MKzkpIxP0cffTTGMoo98Rz6XsfhbqYhNnKLLbZIks8EjnmbfZoe0GXzN22K+8vk/71z+mPd6Bc8PfFzBDXPFyDuE2+3NbMT1jKDVUeJXAXpPWXTYVn9Mj7n+i+xRDrbYxUJz0sfuWLIvWEH/Qzh3CmIeGR3vsf5+QaI+/eKlxSYXl36U28giG+cVxb5SNL/i8+QtRi7ncCOLO3V9ukqJT315peV9UhJwhltYNHZqcnmOYInCLR25dfWsNk9d3xYQUVtuvZ6B0HZRNzCuJi9dGZCuSx4eFtQvX96k+zI92g1jFJefvll+6ihj6oJ9ncYPHvmbFJEQ74A+RIYkXiQOZTdRgdEedjRb3dxleubIUoiJRDRvvEcUzBs3gV+zKFTlOGp3ZuMY6PkqgeDtqQ7V22YJQs0FaxPZ8fixVtx6Wtw354nkM9y0003xRJ4Z3uSzQZwMe+301BPIPc/szZBL83AOkl5z4XLJZGezyYuSMdCcCbniWS8gYHXgbcATzjOdgjgmaC7w3InTZz+V5G3i8ieMJLUEi+dX76324AZrh2k0xivRj41my0Wjk/ME5uyqoEZdzOzRd8qn7tAW0U1KXajiZ0T4JHwmDDlCp5okHJWpFUy/doa5nZepYSiJDkcuDfEy0x3H7xuFDXy+gJti6pJIf7IbQK/as/SI3zIkCFeM/kn/sBgvbkDxPPh7d6ldsIl7IogW2LtGQvYCbu+EtzH5jaHpeukM4Ir7jqCuGwiZtvS5sYWm5M35R2bGxVkDdhmZiHKE0v8iO2UcULY2ksfxfvL+srdx4bJ8V4c0/QUZwlv5w9/+AMhEZGqZCYK1FXBCiQnZiMp8oipEj/z+DNjWma9u5F8QuU9Pt4uQ/oKJtlEDNAVRDkZrKR05rHahFlZ8qSgmH2b/0nBBhKP4G1EJ0iGSS7TPfxUKQStRFS0Z7wyoiG0AWr4BDC2RJrF0GNdCar2pHEwDDEwLE2jCfe6ea3CVidNwz0EsWHLXaBtfvUpxNTecccd3JngtZdGsezECCiuAg+Mt8+fIhyxw7oLw7QoJyM7dgJ4P1q+YJgk/bGT363aOyCAsEb7eRECzmv12s5ane373CDMOH++X2D1r8CVYM8+xxOy6667Mn7kOCUsN4dk2kNgOZEoSY0aAbQvBV8o7wUzw6CYq/u81xrlZzTprZDxUdHpEB7iCqQP4rfGh8SdpbFdt+ehR0VqbdiYhBFYZNvLqYl0Mph54jiI+MWlgcPKZnO3K/COsAEEuxI2ZV8iZVmK4+PkS8YdgoeJ9WYrkDzlRi2Wa9jQ0563gibsWWZOxtIv1oLlEt4dO+r47duLM92DQqIvMygQDzPHurIMjEUHI6sSu+yyC6dQ2mNKvI1x8deOAhYRDnNmV/wB0PZs5CecKun3EqWzm8KKjVK8Gfz/5GC0kgrE6RjqkrNUVy1u+Ssp02aw5pOYBZutgpTYsOUuMP1lVPCUuaZ3cJHXXs/vRJ+VBISzJHBBJD3Nnu4ZNn7nwbIM4ug6OamSvo+dvBxAQ4qXk77DHjJZiy+wAvJJRdinFWxvemKKTzh3gJHm9NfpKgWfxlFCcfO5CT2YM050HXF0WDZzrQ0bquKWsBMsq4lNoQegi3TfddLrsGWDKXzkJTtl+2lVYNgwwN6hTq4+/LLszy3OEOzA0wUGGxsnRidJ2naRgqe9glfDDtGgtDiRSVGSSjba4D+lvMNakgoHJ+9JqhAwUu7xSPaQG8ZlScqUmx4ZttwFJjW/mnTmlOmts5FLLBgEi7A+jN88+KisRM+wlXUfh1cR7l8LpxZfoK2l4pQKOj7cgCnLBrkDjJqGpyTodkt519y8bLHY86I8Ce7p2Kx22IlOHQwbanOQMdOLlNbZRwztrQONSGCbM31w6eYPHrtlqXopxO+4QmxwR1AC80KCV622JVOSlKxMIHDwKgU1jBL5rkqq5GZgLJW0lhHXgrecld2gWAKwA8oQNR7M7SUmBYMFJP43ibXrkr+QuAr22QU7Aub4WXQrmSc+HCF3gUnNrzidhZmksz6jZhLr7wnHSWIvriQz75tIp5JwSmbwjkK3hyKWlEAGxoxJ6xA1+gIrfgVeQRwyZd1ZxWefHoCeO8BYYZxRHM0e3a6X/lIwCUnRBynTgkimt2RC6L9XV3w4cl6vIEkOsQxJ6y62+Vxzw4Dbigr2wvzKgumuWOYlSRfH21q8FCyNKyqjYUMIIa9EyqR3Ea5kYjXTLxgqVyCLViVtAXNB5hL2FdgUVlIYOJa0ahG94Eo2X3vYyjKPYSeTXaqJlGB6y0QvqUtKf398Rnil0m0JngHUTQrH56Am1uqz/FAtsiiFslQRu4NzF5hOoLKnHInGAqf9dtmPwkUwdmsttRAgxLJZPHbmJ8fiKItADHPwDdolzyRcXjrr1SzXeRE97pwSJTku0kYuuHIQQp8SVDviU7svsDL+thQ/frbnc+aQXWlwW8qIktlncIjmyswdoKcw6yJM3ZJUJdKdK5hT4uOZhLF6bWNMaCnmkNGS58pDFMu6LgeCjyzDGqXQJxJZx0eY1EvwW2CJyMbRxPrQHHwe7m0VfM8E+JABuxVcEIIDzvauXbtW3ChW9bzfSFmiWM9muZ3o4qQfMk3gpDHiXFLC8dwaSwrEQGCrkg4+DirPEiwfUtBBSjAL4ye2Qpa7NslMl30pcatxjbDEGNfeKqhHjRIJgWNZBZ84TgB+83hg6aBRDl8l3TTnHXj7HmqkhsTmSICJIN8TbxavFLNtRjBYVvprNvcQHISholflx48jnhiE6H6sHGtvQlHETTBIwkgzV6CleP/oN/HMMBDhY2ZiVzKIPFK+DgBZrGXdAlWJAuAF0TFhfgiOZaSStMGuYrCEKfEDj4JK6LOogo61YmmVFaRj4bgAIocJ/ub/eSk0mS1cNDnjSwnWi+HkjdODYb/pqRi7IJN3XSVDgubjHe7Uy6upwEyiG+FL2GyCR3gFdPd0rcxDGMrzu6vgbHpPIO0laAjTTtRixR01r4Nvg9EDHyHdAr4lHMJEDgZPOQi+Ai+RHx1N5tdHS/nFRVtvsxRUHhEQAREQgRoS8Dyo2c8zq6FOjS+6thu0G5+PWiACIiACtSIQTbNc6fY2llrV3azlZjorslkTUONEQAREoIYEWD3CXY9TFIc8nmqCOPAN4o5jMxz7zLyoAhacaqiKRIuACIiACIhAlQSINuLUEi+yIxhGQR6OnmBZusoaVVwEREAEREAEakiAgPikeEVr7fI6fbiG7WkQ0XJF5vCiiJWq7P6zlLo5zKamZ4SnVK1HIiACeRFggw1hk0lnosa1kIfN7JxZmFe9kiMC1RKwZ31mHKOlZOvTp0+1aqm8CIhAAQhgsZK21tEDEKTOHnB7vFwBFG9gFTRja+CXJ9VFQASKT4CbgDihmGt4e/XqxR44NkqzxsY2cA6sIAaS85rlm8n9Jcqw5Y5UAkVABETgFwSICuHcH0GpGwEZthxQs+mdc/lyEOSIKHldfb7VSZoIiIAIiIAIiIAIiIAIiIAIiIAIiIAIiIAIiIAIiIAIiIAIiIAIiIAIiIAIiIAIiIAIiIAIiIAIiIAIiIAIiIAIiIAIiIAIiIAIiIAIiIAIiIAIiIAIiIAIiIAIiIAIiIAIiIAIiIAIiIAIiIAIiIAIiIAIiIAIiIAIiIAIiIAIiIAIiIAIiIAIiIAIiIAIiIAIiIAIJBFo1arVJptsctlll3E/3jvvvPPEE08MHDgwKbPSRUAEREAERKDQBFZaaSWufOU6c/dvxowZCy64YKH1lnIiIAIiIAIiYAmssMIKU6dO9axa9M++ffva/EoRAREQAREQgUITGDFiRNCqjR07tm3btoVWXcqJgAiIgAiIgEegZ8+enlWbNWvWc889d/LJJy+wwALCJQIiIAIiIAINRmDQoEGuYRszZkzXrl0brA1SVwREQAREoAUQaJ2xjYsttpib87rrrps4cWLGssomAiIgAiIgAnUjkNWwzTPPPK5OEyZMqJuKqkgEREAEREAEshPIatjat2/vCv3xxx+z16GcIiACIiACIlA3AlkNW+vWWXPWTXVVJAIiIAIiIAKWQFZzxYEjtrBSREAEREAERKBoBLIaNk9vIiSL1hLpIwIiIAIiIAIQyGrYOnbs6PLSGpu+HhEQAREQgWISyGrYllhiCbcB06ZNK2Z7pJUIiIAIiIAIlCawyCKLMEVzN2gvv/zypYsphwiIgAiIgAgUkECHDh0efvhh16oxXWvTpk0BVZVKIiACIiACIpBIgEW1XXbZ5Yorrvjqq6+8UyKvvPLKxGJ6IAIiIAIiIAIFJIDvcfz48cGz/CdNmqTb1wr4yqSSCIiACIhAGoHBgwcHrdrbb7/NMf9pJUPAI7cAABd2SURBVPVMBERABERABJqUQDgq8qeffgpqNd988zGZCz5SogiIgAiIgAgUlwBXrH300UfBSdt3333Xq1ev4qouzURABERABEQgSGCuuebabLPNLr/88smTJ3sW7t577w0WUaIIiIAIiIAINACBhRdemJuyXdvG3dneYf8N0AypKAIiIAIiIAIxgaWXXnr27NmubevTp4/4iIAIiIAIiEABCYSDRzxF33///ZEjR7qJXbp0KWBjpJIIiIAIiIAIZDJsYPrwww9dWBxHInYiIAIiIAIiUEACWQ2bd+px27ZtC9gYqSQCIiACIiACWQ2bR0r3jurTEQEREAERKCaBrIaNyJFiNkBaiYAIiIAIiIBLIKthSzqLRDRFQAREQAREoFAEshq2mTNnunprja1Qb1HKiIAIiIAIxASyGrapU6e61Lp16yaIIiACIiACItDABLibzd2g/cEHH2iPdgO/TqkuAiIgAiLQo0cPeyby559/fvPNN/fu3Vt8REAEREAERKDxCDz00EPWtpHCKcmdOnVqvPZIYxEQAREQgRZOoHv37lyfHbRt/fr1a+Fw1HwREAEREIGGJIBte/TRRz3bNmXKlM6dOzdke6S0CIiACIhAsyPQqoIW9e3bd4sttiB4hAu1x40bd9ZZZ40ePboCOSoiAiIgAiIgAiIgAiIgAiIgAiIgAiIgAiIgAiIgAiIgAiIgAiIgAiIgAiIgAiIgAiIgAiIgAiIgAiIgAiIgAiIgAiIgAiIgAiIgAiIgAiIgAiIgAiIgAiIgAiIgAiIgAiIgAiIgAiIgAiIgAiIgAiIgAiIgAiIgAiIgAiIgAiIgAiIgAiIgAiIgAiIgAo1BoJLT/QvYstatW5977rmLLbYYuv3888+3/vcv0vOoo47iOoJWrVpx286IESMuueSSAurf/FTSG2l+71QtEgERqCuBJZdc0r0lbuTIkXH1s2fPjh+NHz++rmq14Mr0Rlrwy1fTRaCJCczRxPXnVP23337rSnL/yf9zb1z01MuWU+WNKqZt27bbb7/9Msss0759+6gNP/300yOPPMK8tvomNegbYWa/8cYbc91g7969F1xwwYkTJ5566qlcrls9kGYmYf/99x80aNDcc889adKkF198EQfJSy+91MzaqOaIQBMToD/68ccf45nZddddFys0duzYOP3JJ59sYkWLVP3tt9/uXYbOPz/88MNcdGzEN7LSSiu9+uqrHpMZM2Zg4XJh0myEDBgwwH45991330ILLdRs2qiGNDSB1g2tfaw8P7MpU6bE//ziiy+C/z958uSM7d1uu+1uvvlmfqunnHJK586dM5ZqoGwYnk022cQqnFdjc38jVtV8U1ZYYQXGPdwL74mda665llhiiXzranRpTGdtEzbddNPHHnusU6dO9pFSRKDOBJqJKxJqGLOuXbtG+FzD5hqzjIatX79+cewJP9f5559/yJAhdX4xta4Ow/PDDz/ETshaVJfjG6mFep5MoormnXdeW9G777775ptv2vSWnPLyyy8Hm7/iiiv+7W9/I1wr+FSJIlA3As1kxgavLLO0jIZtzTXXdF+A98+6vZtaV3T22WfXtIoc30hN9UR4z549+/fv79ZCzBEhSMzXeft4uWutQGPJf/bZZ1mGHD58OFbf03zvvffGGdBYzZG2zY9A8zFsSTOzpNlbyrucZ5553KfBgXxK8UZ5RK/dq1cvgiNqpHCOb6RGGsZi11prLbeKd955B/cjJu3YY4/98ssva117I8q/9957d9ttt+WWWw5KLEPGTVhggQV69OjRiC2Szs2JQPMxbA00PyjOBzRmzJhRo0bVSJ8GeiPRDsiYA8FHxEPWCEszE8u89q677nIbtfjiizezNqo5DUeg+Ri2zz//PKZPCHLw/92utuFeVcMp3EBvxJujT5gwoeFoN6HCnoe/uXo4mpCwqi6XQPMJHnn++ec5c4QDLz755BN3IzYB3ERJtGvXjp1Vr7/+ermAqsxP4Am76NxVh++///6zzz4jdiOW3KVLF/YDxf9kRYfpwqxZs2zVxJ3TBUfSyDBu3LhIDjvSBg4cuMYaaxA+AwQ6GuId2JHmRopaaVlSqItKCZWMm0CNX3311dSpU0sWL+YbCartBdFoUS1IKWMiv7WMOZVNBESgNAEisxkttmnTxsvKL430Oeecs7SI/+Y45phj3G06H3/8ccaCbrbu3bu/8cYbdrsPKTgAo61RGKSnnnrK5pk5c+bhhx/uSlt22WXfe+89L2cU/bH77rszE7VCsHB33HEHgWrpym+11VZuWdcWUukHH3xgJZPyyiuvZNndldcb8ZpAUP5BBx103HHH7bPPPrnE4l900UVuM3faaad0aHrqEjj//PNdervuuqv4iIAIFIIA0VyvvfYa3jN69unTp7s/VM7jINH7IydzQUolae/92j3zcOCBB1Jw8803D5oNEqm0Y8eOsfCgtJtuuum8885LkhClE9138MEHJylJeophO+ecc1KEH3rooSlia/QIS+ntK2fmSoh5ldVdfPHFbktl2Mri6X2cBJWUVVyZRSB3As3HFVkNmkUXXfSyyy7DjRkUQjqxXvYRLsTLL7+cTanB0zrSJzTRKV8pu6GplDyY2Kje4LoFe+xK7odl/srx0KznH3LIIbYJ6SnBVsdF0p+mS6746YUXXrjNNtu4xeeYYw7CO5lZYuYrFusVxMjlJaolyBGulvCWG6uN4a68sdpQvbb0+0lWLV04K0+c9hvMwxJXMJ1EOoJnnnmG/+GQvaTlnPfff//TTz+NJWA+rbSSVi0uwqRt3333tRLSU2655ZbvvvsumIeVwvvvvz/4qHaJHTp04HzCoPwKWufKcSfHpCe9lGDVSvTWgz2Y4iMCItA0BDjjjgCTFLdb0iN+0l6kuNsAzuW69NJLsXBe8ZNPPjnOxiqR+5STLa+99loyWLG77LLLsGHDqNEqw76rHXbYgRke05fll1/+jDPOcE/OjPJ/8803wUlkiiuS85E/+ugjtzocpA8//DDWJT5Xup4vjA1Stu1RCjO2ajRh3OBKJhKnGmktrSy7/Vx6Q4cObWkE1F4RKCgBHFyPP/44FoKpEnty3R8qtoRE74+c5Md0ZWnPlVde6QrE6kTnXBDH6K7n0Tsvssgi6QKZQnmdOxuJ3KDKqDhH1Lv39URFgj1OkmFbbbXVvJgUNlGsvfba6erV9CnNtI2KmsZZGBVXDXNvHMDgoGJpLbDgHnvs4X6THEeiw0da4GegJhedQC5RkW4j8XNypLL748d2YlFcC0qIPwc7lUTjGTYmmoRfBkudfvrpngkkGtPmDBq2DTfccNq0aW5x/KIESdridU657bbbvEZF/+QWlco0wb3JHNSVScNtYG1lwltIKYJUvZdC2FELabuaKQINQyB3w0bL2WzAolSwUybx66+/XnnllbMA8gwb9jKpFBMRIv69Gu3FItawEa7tzWCYqxVkEoM3lZ0GXqOuv/76cpdIWQfCtXvFFVewJ8+TxvQ6CanSkwjYnS3M2zitjRGSRglJ0JQuAnUlUAvDRgMIVediFGvbCMRYZ511MrbQM2wHHHBASkE6F686rhzz8nuGjVU0aw7Z2M7MJqWiej5i8x9b966++uo777yTI/npOsutHZPPFn77IkjBhAdXIsutoqXl58TI4OovSFm/lGeypX0Pam8RCdTIsNFUVom4aNjrUqM9bRlBeIYtfccVK09eXeuuu65XkWfYgt09iTkG02dsae2yDR48ONjMt99+O4s3uHaKNbRkIm44jyYINqM3oqGbL+ULRUDh/nV9HRg2uyON+6s4Jb0yPdIj/u1TPG+VVbTjjjseeeSRlZUtWilmpUGVCPUsGbwTLKhECODlTrrej5AfIRIBEWhiAt6MjcMnc1GIgxyJ5g8OaQnNyDhX8GZsnAWVpBu9jN3DwNmVXv6kGZt1Y2IPCLZMqq6B0tla7m1jiF8KeLnKp4HaUhBVt9xyy+CHTeI999xTECWlhgi0aAJHH320+yvN5UYupgLsEIjFMoblnGK3Fk40Ttrr7b4Mz7CxJpQ0TPaCsKkreBN00LBdddVVbImzIYj4mtjc1rQfB8fEcJYKISQc+PLcc89xnpadmJbUkPXOzTbbjINjODDa65G5aaxk8fQMroZ4g/mcqtyzXHCBBEYR0+th5JbtI444govutMCW/rXoqQjUicBhhx3m/UqTPFT0j5z3yIZl794TT9GFF16Y9RtXJuHp+CQ928Y0ouRdVnYfW3DSRleIzfNawQYAS9AatjPPPDPKRnfM+ZmeEBpit81ZsTVK4UxnDu30VHrrrbcqPt+LV4N1dAUSBJE0VsjSqKCGo0ePrnhLe/EFsinTeyMccpaFlfKIgAjUj8Bee+2VbhIYhDIUZbwfb/aiu0/qDVl78AxYvMuH40Wiq2fi6tgG3q1bt5SmWsNGWTRx+01iLO2p/MRe4gu1km24v5uHTXL26oC77767qYbhHELmvZron5xibJuWMWXppZf29n2zMStjWZuNy3qCGl5wwQU2c5aU4gvcb7/93CazXbKpPo8sPJVHBFoogQ022MD2TSNGjGAcyt8NN9zgWaMos3c4L+z23HNPTifhHgBXGoHm9KQxWTs7xJA8/fTTJ510EnHt9gUEDRvyuemG8ycfeOABe7tNVPvxxx/vSVtqqaWuueYauiFXPXuFG2bSHtDFFIR7kzfaaCOrYe1SmF3Z9xKlVHmkFsBdyRVsIYhazSAmSUOGLBWQKb5AGnXCCSe4rdZ0rYIXrSIiUHMCuOCS7EdSt0W61xuussoqSZlxEkaXw7FHOCkP6SxR2KZWoBiiHnzwQbuF2W4GIKdn2Ni+xuJ/kpIp555YzatPYfqYpAlrPNXI53xOV/LWW29dmTRWSfPVsPgCAXXWWWe5ra7yQOrKyKuUCLgEFO4f+B44v5HrUQIPkpNuvfVWTmZyn9ut0PFTZh5cecM/U/LwtF+/fskVlvGEC8yYTbLt2iuD6S0phYIsIiZlY06Z3oSkgpWlT5gwgViPYFnWAoPpGRNxKbs5g3PlLKLQMGlDBWdzZJHg5Sm+QBQmzshVO75rqYL2qogI5EJAhi2MEe/K8OHDw89+mUpHxlVnbPNi0Oo+SdkkgGcvmhgxdUupIsvN3VwOkHL+L/KHDBmy/fbbs8BmK8KhahO9PV5JW77igkEhVmwuKSjDe7GiWCHj9CabXnFKxUtEaBJ0xKF5ML2khsUXSBMqxlWy+cogAiKQP4Ftt932hRdesEdMYcMwFY8++ig3aKeECBIkgmnxijPniE/sJZbyoYceYnnM818RVc8KVjDSz3NFRsftr7766qeddhr34zAtYKscK0acOMVFNulR5gMGDCC/u9eN/pcVRJdju3btMPD2QEVysvfuuOOOyx96KYmcIuaecMEAggtXSxUq8ZzIUvcVpJ/nUkLWr37F3eJcEhQLZFV1iy22KFkqJUPBBXo3aHPWaEpb9EgE6kCgVR3qaPQqMDDc4YL/kAuvMUL08oQqsCkNk1D/pmHYXHNFZEd0Z2n9NWnCGglAxU/LfgmW1jjHsuS0sqSqdM0HHXRQnG3nnXeu8ggx9oH07ds3Rw2LLNCjx7Ag5Wzuku9CGUSgegK/cI5XL65ZSmCDNvOqZtm0Bm0Uw4sUB2wFjUKgW6riNbZYCBP6fDUsskDPFdkkA74KXrqKNGMCWmNrxi9XTctKAN+mmzV9K2FWoS0mn4cLN2yLaboaWlACMmwFfTGeWgyKCaQk+NsbHXMkCon8VXywRWO0v8Zasgzm1sAO/Wr2aNdY2QKJZ9cKl8hzOJmrE5GcBVJRqoiACBSTACfM2nOk7H4pji3m+KViNqHgWvXo0cPyZGc9a0W9e/cuuPJNoh62n8sFZ8yY4XEjWsrumGwSDVWpCIhAoQlwFqLtdoMpN954Y6FbUmDlWEYNIiWKtYJDlgvc0BxUW3/99YOsSBw6dGgOFUiECIhAsydgT2tM6lbYgdDsadSogRxrYo+NjjjntVO+RprXXyw7LoJf4KhRo4pz03r9sahGERCBMgikHGrl9S8nnnhiGXKV9ZcEsG2MDDykOIHZ5iFULoFVV13V253JlQjDhg3T1FbfSUEIaB9bQV5EmhpspBs8eDAXoSVdIEBhDoVivMy+bI41SZOlZ6UIsP+M/dQEjxCPw7kqHITIic+lCrW451wKwYV/mHy2Eo4cOZILH+p5Bk2Lw60Gi4AIiIAIiIAIiIAIiIAIiIAIiIAIiIAIiIAIiIAIiIAIiIAIiIAIiIAIiIAIiIAIiIAIiIAIiIAIiIAIiIAIiIAIiIAIiIAIiIAIiIAIiIAIiIAIiIAIiIAIiIAIiIAIiIAIiIAIiIAIiIAIiIAIiIAIiIAIiIAIiIAIiIAIiIAIiIAIiIAIiIAIiIAIiIAIiIAIiIAIiIAIiIAIiIAIiIAItBACiReN7r///oMGDZp77rknTZr04osv3nrrrS+99FILgaJmioAIiIAINDcCAwYM+Lf5u++++xZaaKHm1lS1RwREQAREoCUQOPDAA41d+0/C6NGjO3Xq1BIIqI0iIAIiIALNisBaa60VNGwknnbaac2qqWqMCIiACIhACyGw+eabX3/99WPHjvUs3JQpU1q1SlyZayFw1EwREAEREIEGJrDGGmtMnz7dNW89e/Zs4PZIdREQAREQAREYPny4a9jWW289MREBERABERCBYhJonUWtyZMnu9nmnXfeLKWURwREQAREQATqTyCTYfPUateuXf0VVY0iIAIiIAIikIVAJYZtjjnmyCJaeURABERABESg/gQqMWyKiqz/e1KNIiACIiACGQlkMmxEjmQUp2wiIAIiIAIi0LQEMhm2WbNmuVp27NixaZVW7SIgAiIgAiKQRCCTYZs2bZpbvnv37knilC4CIiACIiACTUsgk2GbMGGCq+V2222nZbamfW2qXQREQAREoCoCffr08Q7WOuecc6qSqMIiIAIiIAIi0LQE3njjDc+2vfvuu6eeeuqGG27Ypk2bptVNtYuACIiACIhA2QTWXHNNQkiCR/4/9thj8kyWDVQFREAEREAEmpzAwIEDp06dGrRtK6+8cpOrJwVEQAREQAREAAKZgkciUlyf3b59+yC12bNnB9OVKAIiIAIiIAIFJbDlllsG52ok3nPPPQVVWmqJgAiIgAiIQJDAnHPOOXHiRM+wvfzyy0cccQR3bWuBLQhNiSIgAiIgAsUl0L9/f8+qnXLKKcVVV5qJgAiIgAiIQDqB/fbbzzVsY8aM0SwtnZieioAIiIAINBWBTMEjXbp0cfW7/fbbsXNNpbHqFQEREAEREIEUApkMm3fq8fjx41Mk6pEIiIAIiIAINCGBTIbNu1l0+vTpTaixqhYBERABERCBFAKZDJtW1FII6pEIiIAIiEChCGQybJ7GWmAr1CuUMiIgAiIgAi6BSgybzhnRNyQCIiACIlBYApkMm+eK/OGHHwrbHikmAiIgAiLQwglkMmzdunVzMX3zzTctnJqaLwIiIAIi0KgEOEyL+7JnzpzpbtBeZpllGrU90lsEREAERKDFEthrr72efPLJGTNmeIdpTZo0qXXrTPO8FotODRcBERABESgcgfXXX9+zZ/E/hw4dWjh1pZAIiIAIiIAIpBM44IADgoZt1KhRHTp0SC+rpyIgAiIgAiJQOAKrrrrqzz//7Nq2WbNmDRs2rFOnToXTVQqJgAiIgAiIgEOgVRKNrbbaao899ujcuTM3sY0cOfLuu+8eN25cUmali4AIiIAIiIAIiIAIiIAIiIAIiIAIiIAIiIAIiIAIiIAIiIAIiIAIiIAIiIAIiIAIiIAIiIAIiIAIiIAIiIAIiIAIiIAIiIAIiIAIiIAIiIAIiIAIiIAIiIAIiIAIiIAIiIAIiIAIiIAIiIAIiIAIiIAIiIAIiIAIiIAIiIAIiIAIiIAIiIAIiIAIiIAIiIAIiIAIiIAIiIAIiIAIiIAIiIAIiIAIiIAIiIAIiIAIiIAIiIAIiIAIiIAIiIAIiECzJPB/WooF6H9iqjwAAAAASUVORK5CYII=;" vertex="1" parent="1">
          <mxGeometry x="370" y="580.25" width="154.36" height="60" as="geometry" />
        </mxCell>
        <mxCell id="8wQd0vTRtWPYDtNzIvMa-52" value="" style="endArrow=none;html=1;rounded=0;exitX=0;exitY=0;exitDx=0;exitDy=0;entryX=0;entryY=1;entryDx=0;entryDy=0;dashed=1;" edge="1" parent="1" source="8wQd0vTRtWPYDtNzIvMa-51" target="8wQd0vTRtWPYDtNzIvMa-35">
          <mxGeometry width="50" height="50" relative="1" as="geometry">
            <mxPoint x="760" y="340" as="sourcePoint" />
            <mxPoint x="810" y="290" as="targetPoint" />
          </mxGeometry>
        </mxCell>
        <mxCell id="8wQd0vTRtWPYDtNzIvMa-53" value="" style="endArrow=none;html=1;rounded=0;exitX=1;exitY=0;exitDx=0;exitDy=0;dashed=1;" edge="1" parent="1" source="8wQd0vTRtWPYDtNzIvMa-51">
          <mxGeometry width="50" height="50" relative="1" as="geometry">
            <mxPoint x="760" y="340" as="sourcePoint" />
            <mxPoint x="640" y="480" as="targetPoint" />
          </mxGeometry>
        </mxCell>
      </root>
    </mxGraphModel>
  </diagram>
</mxfile>
